<?xml version="1.0" encoding="utf-8"?>
<!-- Generator: Adobe Illustrator 18.0.0, SVG Export Plug-In . SVG Version: 6.00 Build 0)  -->
<!DOCTYPE svg PUBLIC "-//W3C//DTD SVG 1.1//EN" "http://www.w3.org/Graphics/SVG/1.1/DTD/svg11.dtd">
<svg version="1.1" id="Layer_1" xmlns="http://www.w3.org/2000/svg" xmlns:xlink="http://www.w3.org/1999/xlink" x="0px" y="0px"
	 viewBox="0 0 343.854 347.561" enable-background="new 0 0 343.854 347.561" xml:space="preserve">
<g>
	<g>
		<defs>
			<path id="SVGID_1_" d="M-7.776,6.752l5.537,339.809h354.645V6.752H-7.776z"/>
		</defs>
		<clipPath id="SVGID_2_">
			<use xlink:href="#SVGID_1_"  overflow="visible"/>
		</clipPath>
		<g clip-path="url(#SVGID_2_)">
			
				<path fill="#FBD5CA" stroke="#FFFFFF" stroke-width="2" stroke-linecap="round" stroke-linejoin="round" stroke-miterlimit="10" d="
				M103.162,125.187c0,0-23.147,62.671,34.408,105.782l42.541,7.452l15.014-83.205l-56.304-37.194L103.162,125.187z"/>
			<path fill="#2E2D2E" stroke="#FFFFFF" stroke-width="2" stroke-linecap="round" stroke-linejoin="round" d="M158.504,161.413
				c33.399,0,51.427-30.349,51.427-63.748S182.856,37.19,149.456,37.19S88.981,64.265,88.981,97.664
				c0,15.748,6.019,30.09,15.882,40.85l16.648,6.546c0,0-1.439-0.844-0.709-3.607C121.532,138.692,140.361,161.413,158.504,161.413z
				"/>
			
				<path fill="#FFFFFF" stroke="#FFFFFF" stroke-width="2" stroke-linecap="round" stroke-linejoin="round" stroke-miterlimit="10" d="
				M108.896,100.508c0-36.808,29.839-66.646,66.646-66.646c16.688,0,31.931,6.148,43.623,16.284
				c-12.22-14.095-30.243-23.023-50.362-23.023c-36.808,0-66.646,29.839-66.646,66.647c0,20.119,15.169,45.224,29.264,57.444
				C121.285,139.522,108.896,117.197,108.896,100.508z"/>
			
				<path fill="#FBD5CA" stroke="#FFFFFF" stroke-width="2" stroke-linecap="round" stroke-linejoin="round" stroke-miterlimit="10" d="
				M123.659,146.552c0,0-8.402-17.926-19.09-17.926c-2.815,0,0.313,6.257,0.782,16.58c0.469,10.322,2.815,31.124,19.394,31.124"/>
			<path fill="none" stroke="#FFFFFF" stroke-width="2" stroke-linecap="round" stroke-linejoin="round" d="M105.351,128.628
				c0,0,10.01-0.626,8.133,24.086"/>
			
				<circle fill="#2E2D2E" stroke="#FFFFFF" stroke-width="2" stroke-linecap="round" stroke-linejoin="round" cx="176.025" cy="89.254" r="66.646"/>
			
				<path fill="#EC2666" stroke="#FFFFFF" stroke-width="2" stroke-linecap="round" stroke-linejoin="round" stroke-miterlimit="10" d="
				M325.338,316.054c-2.415-20.378-33.917-40.482-33.917-40.482l-151.578-15.522c0,0-36.055,30.922-79.013,38.429
				S9.53,362.707,9.53,362.707l200.401,140.969l82.788-21.271l58.807-72.57L325.338,316.054z"/>
			<path fill="#2D2D2D" d="M305.231,321.626c13.138-15.014-10.01-36.911-28.152-68.816s-29.639-147.76-29.639-147.76
				c0-24.812-20.114-44.926-44.926-44.926s-44.926,20.114-44.926,44.926c0,0-5.005,145.883-28.152,182.168
				c-20.254,31.749-28.653,42.424-20.326,54.655c0,0-4.348,17.919,4.965,25.216c0,0-12.122,11.529,2.975,29.849
				s32.405,28.747,32.405,28.747l45.669,46.712l60.058,2.502l40.039-11.678l-5.422-82.788l9.936-18.56l-2.428-13.346
				c0,0,10.965-7.299,9.445-17.1C305.231,321.626,305.231,321.626,305.231,321.626z"/>
			<path fill="none" stroke="#FFFFFF" stroke-width="2" stroke-linecap="round" stroke-linejoin="round" d="M109.112,341.873
				c-8.328-12.231,0.071-22.905,20.325-54.655c23.147-36.285,28.152-182.168,28.152-182.168c0-24.812,20.114-44.926,44.926-44.926
				s44.926,20.114,44.926,44.926c0,0,11.496,115.854,29.639,147.76s41.29,53.802,28.152,68.816"/>
			<path fill="none" stroke="#FFFFFF" stroke-width="2" stroke-linecap="round" stroke-linejoin="round" d="M149.456,252.81
				c0,0-6.882,46.92-20.019,60.683c-13.138,13.763-30.811,37.536-15.718,51.925"/>
			<path fill="none" stroke="#FFFFFF" stroke-width="2" stroke-linecap="round" stroke-linejoin="round" d="M217.23,182.117
				c0,0-4.588,41.29,4.588,67.565s22.522,59.224,4.171,70.067s-26.692,27.527-12.512,38.787"/>
			<path fill="none" stroke="#FFFFFF" stroke-width="2" stroke-linecap="round" stroke-linejoin="round" d="M237.249,215.482
				c0,0,5.839,26.157,20.436,44.567c14.597,18.41,35.451,44.268,25.441,61.577"/>
			<path fill="none" stroke="#FFFFFF" stroke-width="2" stroke-linecap="round" stroke-linejoin="round" d="M195.125,256.355
				c0,0-12.095,15.014-5.839,26.275c6.256,11.261,19.602,24.607,7.507,38.996"/>
			<path fill="none" stroke="#FFFFFF" stroke-width="2" stroke-linecap="round" stroke-linejoin="round" d="M292.719,295.976
				c0,0,26.799,34.165,6.326,51.299"/>
			<path fill="none" stroke="#FFFFFF" stroke-width="2" stroke-linecap="round" stroke-linejoin="round" d="M131.431,402.329
				c-5.503,0-10.532-2.03-14.379-5.383c-4.606-4.014-7.517-9.924-7.517-16.514c0-12.093,9.803-21.896,21.896-21.896"/>
		</g>
	</g>
	<path fill="none" stroke="#FFFFFF" stroke-width="2" d="M66.984,298.479c0,0,13.845,8.436,13.845,37.436"/>
</g>
</svg>
