<?xml version="1.0" encoding="utf-8"?>
<!-- Generator: Adobe Illustrator 18.0.0, SVG Export Plug-In . SVG Version: 6.00 Build 0)  -->
<!DOCTYPE svg PUBLIC "-//W3C//DTD SVG 1.1//EN" "http://www.w3.org/Graphics/SVG/1.1/DTD/svg11.dtd">
<svg version="1.1" id="Layer_1" xmlns="http://www.w3.org/2000/svg" xmlns:xlink="http://www.w3.org/1999/xlink" x="0px" y="0px"
	 viewBox="0 0 314.68 314.68" enable-background="new 0 0 314.68 314.68" xml:space="preserve">
<g>
	<defs>
		<rect id="SVGID_1_" x="0" y="0" width="314.68" height="314.68"/>
	</defs>
	<clipPath id="SVGID_2_">
		<use xlink:href="#SVGID_1_"  overflow="visible"/>
	</clipPath>
	<rect x="0" y="0" clip-path="url(#SVGID_2_)" fill="#9F605A" width="314.68" height="314.68"/>
	
		<path clip-path="url(#SVGID_2_)" fill="#E72B66" stroke="#FFFFFF" stroke-width="2" stroke-linecap="round" stroke-linejoin="round" stroke-miterlimit="10" d="
		M217.101,48.937c-2.555-0.956-5.038-2.078-7.546-3.098l-7.593-2.884c-2.507-0.967-4.991-2.155-7.546-3.212
		c-2.531-1.081-5.086-2.137-7.832-2.924c-1.337-0.43-2.746-0.77-4.179-1.099c-1.433-0.298-2.913-0.549-4.514-0.621l-0.572-0.035
		l-0.501,0.018l-0.263,0.017l-1.004,0.084c-0.644,0.011-1.432,0.161-2.292,0.346c-1.719,0.317-3.009,0.806-4.44,1.253
		c-2.197,0.818-4.275,1.756-6.352,2.812c-2.053-1.056-4.131-2-6.328-2.818c-1.408-0.447-2.794-0.943-4.322-1.224
		c-0.716-0.185-1.481-0.328-2.34-0.363l-1.241-0.09c-0.263-0.006-0.24-0.054-0.764-0.017l-0.502,0.035
		c-0.692,0.072-1.313,0.077-2.077,0.197l-2.316,0.412c-1.457,0.346-2.841,0.669-4.179,1.11c-2.746,0.776-5.278,1.857-7.832,2.919
		l-3.797,1.636l-1.862,0.818l-0.861,0.369l-0.955,0.364l-7.641,2.901c-2.531,1.021-5.038,2.132-7.569,3.075
		c-2.483,0.89-4.92,1.857-7.378,2.866c-2.102,0.161,0,0.388,0,0.388c0.669,0.031,4.608,1.893,6.662,3.516
		c1.433,1.122,3.176,2.435,5.253,3.899c2.053,1.45,4.417,3.026,7.115,4.519c2.698,1.504,5.684,3.026,8.859,4.531
		c1.648,0.698,3.295,1.408,5.015,2.143c1.719,0.681,3.533,1.247,5.372,1.833c3.702,1.069,7.522,2,11.557,2.68
		c2.006,0.251,4.131,0.609,6.137,0.758c2.029,0.108,3.821,0.269,6.041,0.323c2.006-0.029,4.108-0.215,6.137-0.317
		c2.054-0.155,4.059-0.513,6.065-0.764c3.988-0.674,7.856-1.605,11.557-2.68c1.814-0.59,3.653-1.147,5.372-1.82
		c1.696-0.729,3.367-1.451,4.991-2.143c3.201-1.511,6.162-3.039,8.86-4.537c2.698-1.499,5.086-3.063,7.139-4.519
		c2.031-1.463,3.821-2.752,5.23-3.869c2.053-1.63,5.993-3.492,6.686-3.492h0.214C226.699,52.232,219.608,49.832,217.101,48.937z"/>
	<path clip-path="url(#SVGID_2_)" fill="#FBD5CA" d="M124.999,365.419c4.385-11.511,48.238-98.668,53.171-103.729
		c4.933-5.061,9.813-20.142,9.813-20.142l2.879-0.072c0.274,2.741,5.646,0.766,5.646,0.766l-9.403-0.766c0,0,3.673,1.723,6.277,0
		l3.127-15.346l1.396-6.85c0,0,3.687-10.82,3.351-17.579l-19.796-6.211l-2.119,0.828l2.119-0.828
		c3.289-1.644,42.208,15.897,49.882,18.089c7.674,2.193,11.538-6.03,11.538-6.03s3.262-2.193,2.988-5.482
		c0,0-16.993-8.44-16.993-6.686l2.467,0.109c-3.289-2.741-27.408-14.252-35.082-20.522l2.146,10.787
		c5.711,0,6.913-9.221,6.913-14.932c0-5.711-4.629-10.34-10.34-10.34l7.979,3.762c0,0,59.629,33.288,64.563,16.918l-4.018-2.118
		c8.041,3.837,8.952-4.078,8.952-4.078l-20.389-12.734l3.397,2.011c0,0-41.66-24.667-50.979-30.149
		c-9.319-5.482-75.591,11.312-75.591,11.312c-9.373,3.212-15.074,6.749-15.074,15.074c0,0,0.22,38.296-4.165,59.674
		c-4.385,21.378-5.754,49.334-10.003,53.719s-49.198,89.349-53.035,91.542"/>
	
		<path clip-path="url(#SVGID_2_)" fill="none" stroke="#FFFFFF" stroke-width="2" stroke-linecap="round" stroke-linejoin="round" d="
		M267.519,181.164c-4.933,16.37-64.563-16.918-64.563-16.918"/>
	
		<path clip-path="url(#SVGID_2_)" fill="#E72B66" stroke="#FFFFFF" stroke-width="2" stroke-linecap="round" stroke-linejoin="round" stroke-miterlimit="10" d="
		M252.063,162.235l20.389,12.734c0,0-0.911,7.915-8.952,4.078C255.46,175.209,250.859,168.994,252.063,162.235z"/>
	
		<path clip-path="url(#SVGID_2_)" fill="none" stroke="#FFFFFF" stroke-width="2" stroke-linecap="round" stroke-linejoin="round" d="
		M124.999,188.09c0-4.995,4.049-9.045,9.045-9.045c0,0,54.542-10.348,62.216-4.078c7.674,6.27,31.793,17.781,35.082,20.522"/>
	
		<path clip-path="url(#SVGID_2_)" fill="none" stroke="#FFFFFF" stroke-width="2" stroke-linecap="round" stroke-linejoin="round" d="
		M187.105,241.477c0,0-4.001,15.153-8.935,20.214c-4.933,5.061-48.786,92.217-53.171,103.729"/>
	
		<path clip-path="url(#SVGID_2_)" fill="none" stroke="#FFFFFF" stroke-width="2" stroke-linecap="round" stroke-linejoin="round" d="
		M242.879,207.55c0,0-3.864,8.222-11.538,6.03c-7.674-2.193-46.593-19.734-49.882-18.089c-3.289,1.644-26.312,7.674-24.941,12.608
		s12.7,34.534,10.324,45.497"/>
	
		<path clip-path="url(#SVGID_2_)" fill="#E72B66" stroke="#FFFFFF" stroke-width="2" stroke-linecap="round" stroke-linejoin="round" stroke-miterlimit="10" d="
		M245.867,202.068c0,0-16.993-8.44-16.993-6.686c0,1.753,2.467,10.249,14.004,12.168
		C242.879,207.55,246.141,205.357,245.867,202.068z"/>
	
		<path clip-path="url(#SVGID_2_)" fill="none" stroke="#FFFFFF" stroke-width="2" stroke-linecap="round" stroke-linejoin="round" d="
		M179.34,196.318c0,0,0.759,7.12,0,11.232s-8.378,25.919,7.765,33.927c0,0,3.673,1.723,6.277,0l3.127-15.346l1.396-6.85
		c0,0,3.687-10.82,3.351-17.579l-19.796-6.211L179.34,196.318z"/>
	
		<path clip-path="url(#SVGID_2_)" fill="#E72B66" stroke="#FFFFFF" stroke-width="2" stroke-linecap="round" stroke-linejoin="round" stroke-miterlimit="10" d="
		M190.914,239.891c-0.355-3.545,1.046-13.269,5.593-13.761c0,0,1.893,7.089,0,16.112
		C196.508,242.242,191.189,242.632,190.914,239.891z"/>
	
		<path clip-path="url(#SVGID_2_)" fill="none" stroke="#FFFFFF" stroke-width="2" stroke-linecap="round" stroke-linejoin="round" d="
		M119.346,170.823c0-5.711,4.629-10.34,10.34-10.34h65.291c5.711,0,10.34,4.629,10.34,10.34l-0.84,8.677"/>
	<path clip-path="url(#SVGID_2_)" fill="#FBD5CA" d="M160.629,24.466c0,0,15.897-2.741,15.897,13.704c0,0-2.115,36.412-8.771,57.41
		c-6.655,20.998-1.644,40.71-1.644,40.71l-37.22,9.119c0,0,13.28-38.271,14.746-47.49c1.901-11.949,4.933-16.993,4.933-16.993
		l8.77-35.176"/>
	<path clip-path="url(#SVGID_2_)" fill="none" stroke="#FFFFFF" stroke-width="2" d="M160.629,24.466
		c0,0,15.897-2.741,15.897,13.704c0,0-2.115,36.412-8.771,57.41c-6.655,20.998-1.644,40.71-1.644,40.71"/>
	
		<path clip-path="url(#SVGID_2_)" fill="#E72B66" stroke="#FFFFFF" stroke-width="2" stroke-linecap="round" stroke-linejoin="round" stroke-miterlimit="10" d="
		M164.466,30.495c-1.295,18.043-7.126,15.254-7.126,15.254c-1.949-8.676,0-21.455,0-21.455S164.997,23.092,164.466,30.495z"/>
	<path clip-path="url(#SVGID_2_)" fill="none" stroke="#FFFFFF" stroke-width="2" d="M157.34,45.749l-8.77,35.176
		c0,0-3.033,5.043-4.933,16.993c-1.466,9.219-14.746,47.49-14.746,47.49"/>
	
		<path clip-path="url(#SVGID_2_)" fill="none" stroke="#FFFFFF" stroke-width="2" stroke-linecap="round" stroke-linejoin="round" d="
		M255.46,164.246c0,0-41.66-24.667-50.979-30.149c-9.319-5.482-75.591,11.312-75.591,11.312
		c-9.373,3.212-15.074,6.749-15.074,15.074c0,0,0.22,38.296-4.165,59.674c-4.385,21.378-5.754,49.334-10.003,53.719
		s-49.198,89.349-53.035,91.542"/>
</g>
</svg>
