<?xml version="1.0" encoding="utf-8"?>
<!-- Generator: Adobe Illustrator 18.0.0, SVG Export Plug-In . SVG Version: 6.00 Build 0)  -->
<!DOCTYPE svg PUBLIC "-//W3C//DTD SVG 1.1//EN" "http://www.w3.org/Graphics/SVG/1.1/DTD/svg11.dtd">
<svg version="1.1" id="Layer_1" xmlns="http://www.w3.org/2000/svg" xmlns:xlink="http://www.w3.org/1999/xlink" x="0px" y="0px"
	 viewBox="0 0 328.049 328.049" enable-background="new 0 0 328.049 328.049" xml:space="preserve">
<g>
	<g>
		<path fill="#97DFD1" d="M230.891,57.394H14.564c-4.4,0-8-3.6-8-8V14.407c0-4.4,3.6-8,8-8h216.327c4.4,0,8,3.6,8,8v34.986
			C238.891,53.794,235.291,57.394,230.891,57.394z"/>
		<path fill="#97DFD1" d="M23.878,52.984c-1.979,0.989-6.431,16.819-10.883,17.561c0,0,6.925-16.819-6.431-18.303"/>
	</g>
	<polygon fill="none" points="236.568,50.62 17.221,50.612 17.221,15.748 235.539,15.763 	"/>
	<text transform="matrix(1 0 0 1 17.2208 26.5333)"><tspan x="0" y="0" fill="#222222" font-family="'Helvetica'" font-size="15">What do you think the idea of a </tspan><tspan x="0" y="18" fill="#222222" font-family="'Helvetica'" font-size="15">Pakistani good girl is?</tspan></text>
</g>
<g>
	<g>
		<path fill="#97DFD1" d="M255.753,163.67H17.023c-5.752,0-10.459-4.706-10.459-10.459v-7.615c0-5.752,4.706-10.459,10.459-10.459
			h238.73c5.752,0,10.459,4.706,10.459,10.459v7.615C266.212,158.964,261.505,163.67,255.753,163.67z"/>
		<path fill="#97DFD1" d="M23.878,157.953c-1.979,0.989-6.431,16.819-10.883,17.561c0,0,6.925-16.819-6.431-18.303"/>
	</g>
	<polygon fill="none" points="295.746,157.265 17.221,157.262 17.221,143.234 294.439,143.24 	"/>
	<text transform="matrix(1 0 0 1 17.2208 154.0192)" fill="#222222" font-family="'Helvetica'" font-size="15">A girl should not be peer pressured</text>
</g>
<g>
	<g>
		<path fill="#97DFD1" d="M282.753,244.877H17.023c-5.752,0-10.459-4.706-10.459-10.459v-7.615c0-5.752,4.706-10.459,10.459-10.459
			h265.73c5.752,0,10.459,4.706,10.459,10.459v7.615C293.212,240.171,288.505,244.877,282.753,244.877z"/>
		<path fill="#97DFD1" d="M23.878,239.161c-1.979,0.989-6.431,16.819-10.883,17.561c0,0,6.925-16.819-6.431-18.303"/>
	</g>
	<polygon fill="none" points="295.746,238.473 17.221,238.47 17.221,224.442 294.439,224.447 	"/>
	<text transform="matrix(1 0 0 1 17.2208 235.2267)" fill="#222222" font-family="'Helvetica'" font-size="15">Maybe she has feelings too, you know?</text>
</g>
<g>
	<g>
		<path fill="#2E2D2E" d="M89.039,121.759h221.327c4.4,0,8-3.6,8-8V78.772c0-4.4-3.6-8-8-8H89.039c-4.4,0-8,3.6-8,8v34.986
			C81.039,118.159,84.639,121.759,89.039,121.759z"/>
		<path fill="#2E2D2E" d="M301.052,117.349c1.979,0.989,6.431,16.819,10.883,17.561c0,0-6.925-16.819,6.431-18.303"/>
	</g>
	<polygon fill="none" points="310.916,114.702 91.568,114.694 91.568,79.83 309.886,79.844 	"/>
	<text transform="matrix(1 0 0 1 91.5682 90.6149)"><tspan x="0" y="0" fill="#FFFFFF" font-family="'Helvetica'" font-size="15">In Pakistan a “perfect” girl is shy </tspan><tspan x="0" y="18" fill="#FFFFFF" font-family="'Helvetica'" font-size="15">and quiet; but that’s old school</tspan></text>
</g>
<g>
	<g>
		<path fill="#2E2D2E" d="M118.039,307.935h192.327c4.4,0,8-3.6,8-8v-34.986c0-4.4-3.6-8-8-8H118.039c-4.4,0-8,3.6-8,8v34.986
			C110.039,304.335,113.639,307.935,118.039,307.935z"/>
		<path fill="#2E2D2E" d="M301.052,303.526c1.979,0.989,6.431,16.819,10.883,17.561c0,0-6.925-16.819,6.431-18.303"/>
	</g>
	<polygon fill="none" points="309.916,301.878 122.221,301.87 122.221,267.006 309.035,267.021 	"/>
	<text transform="matrix(1 0 0 1 122.2208 277.7916)"><tspan x="0" y="0" fill="#FFFFFF" font-family="'Helvetica'" font-size="15">A good girl is a girl of grace, </tspan><tspan x="0" y="18" fill="#FFFFFF" font-family="'Helvetica'" font-size="15">elegance and dignity</tspan></text>
</g>
<g>
	<g>
		<path fill="#2E2D2E" d="M83.177,204.274h224.73c5.752,0,10.459-4.706,10.459-10.459V186.2c0-5.752-4.706-10.459-10.459-10.459
			H83.177c-5.752,0-10.459,4.706-10.459,10.459v7.615C72.718,199.567,77.425,204.274,83.177,204.274z"/>
		<path fill="#2E2D2E" d="M301.052,198.557c1.979,0.989,6.431,16.819,10.883,17.561c0,0-6.925-16.819,6.431-18.303"/>
	</g>
	<polygon fill="none" points="310.916,200.815 84.118,200.811 84.118,183.379 309.851,183.386 	"/>
	<text transform="matrix(1 0 0 1 84.1181 194.1642)" fill="#FFFFFF" font-family="'Helvetica'" font-size="15">Is it your job to tell me I’m wrong?</text>
</g>
</svg>
