<?xml version="1.0" encoding="utf-8"?>
<!-- Generator: Adobe Illustrator 18.0.0, SVG Export Plug-In . SVG Version: 6.00 Build 0)  -->
<!DOCTYPE svg PUBLIC "-//W3C//DTD SVG 1.1//EN" "http://www.w3.org/Graphics/SVG/1.1/DTD/svg11.dtd">
<svg version="1.1" id="Layer_1" xmlns="http://www.w3.org/2000/svg" xmlns:xlink="http://www.w3.org/1999/xlink" x="0px" y="0px"
	 viewBox="0 0 315 315" enable-background="new 0 0 315 315" xml:space="preserve">
<g>
	<g>
		<path fill="#97DFD1" d="M226.452,51.307H10.125c-4.4,0-8-3.6-8-8V8.32c0-4.4,3.6-8,8-8h216.327c4.4,0,8,3.6,8,8v34.986
			C234.452,47.707,230.852,51.307,226.452,51.307z"/>
		<path fill="#97DFD1" d="M19.439,46.897c-1.979,0.989-6.431,16.819-10.883,17.561c0,0,6.925-16.819-6.431-18.303"/>
	</g>
	<polygon fill="none" points="232.129,44.533 12.782,44.525 12.782,9.661 231.1,9.676 	"/>
	<text transform="matrix(1 0 0 1 12.7817 20.4465)"><tspan x="0" y="0" fill="#222222" font-family="'Helvetica'" font-size="15">What do you think the idea of a </tspan><tspan x="0" y="18" fill="#222222" font-family="'Helvetica'" font-size="15">Pakistani good girl is?</tspan></text>
</g>
<g>
	<g>
		<path fill="#97DFD1" d="M251.314,157.583H12.584c-5.752,0-10.459-4.706-10.459-10.459v-7.615c0-5.752,4.706-10.459,10.459-10.459
			h238.73c5.752,0,10.459,4.706,10.459,10.459v7.615C261.773,152.877,257.066,157.583,251.314,157.583z"/>
		<path fill="#97DFD1" d="M19.439,151.866c-1.979,0.989-6.431,16.819-10.883,17.561c0,0,6.925-16.819-6.431-18.303"/>
	</g>
	<polygon fill="none" points="291.307,151.178 12.782,151.175 12.782,137.147 290,137.153 	"/>
	<text transform="matrix(1 0 0 1 12.7817 147.9324)" fill="#222222" font-family="'Helvetica'" font-size="15">A girl should not be peer pressured</text>
</g>
<g>
	<g>
		<path fill="#97DFD1" d="M278.314,238.791H12.584c-5.752,0-10.459-4.706-10.459-10.459v-7.615c0-5.752,4.706-10.459,10.459-10.459
			h265.73c5.752,0,10.459,4.706,10.459,10.459v7.615C288.773,234.084,284.066,238.791,278.314,238.791z"/>
		<path fill="#97DFD1" d="M19.439,233.074c-1.979,0.989-6.431,16.819-10.883,17.561c0,0,6.925-16.819-6.431-18.303"/>
	</g>
	<polygon fill="none" points="291.307,232.386 12.782,232.383 12.782,218.355 290,218.361 	"/>
	<text transform="matrix(1 0 0 1 12.7817 229.1399)" fill="#222222" font-family="'Helvetica'" font-size="15">Maybe she has feelings too, you know?</text>
</g>
<g>
	<g>
		<path fill="#2D2D2D" d="M84.6,115.672h221.327c4.4,0,8-3.6,8-8V72.686c0-4.4-3.6-8-8-8H84.6c-4.4,0-8,3.6-8,8v34.986
			C76.6,112.072,80.2,115.672,84.6,115.672z"/>
		<path fill="#2D2D2D" d="M296.613,111.263c1.979,0.989,6.431,16.819,10.883,17.561c0,0-6.925-16.819,6.431-18.303"/>
	</g>
	<polygon fill="none" points="306.477,108.615 87.129,108.607 87.129,73.743 305.447,73.757 	"/>
	<text transform="matrix(1 0 0 1 87.1292 84.5281)"><tspan x="0" y="0" fill="#FFFFFF" font-family="'Helvetica'" font-size="15">In Pakistan a “perfect” girl is shy </tspan><tspan x="0" y="18" fill="#FFFFFF" font-family="'Helvetica'" font-size="15">and quiet; but that’s old school</tspan></text>
</g>
<g>
	<g>
		<path fill="#2D2D2D" d="M113.6,301.849h192.327c4.4,0,8-3.6,8-8v-34.986c0-4.4-3.6-8-8-8H113.6c-4.4,0-8,3.6-8,8v34.986
			C105.6,298.249,109.2,301.849,113.6,301.849z"/>
		<path fill="#2D2D2D" d="M296.613,297.439c1.979,0.989,6.431,16.819,10.883,17.561c0,0-6.925-16.819,6.431-18.303"/>
	</g>
	<polygon fill="none" points="305.477,295.791 117.782,295.783 117.782,260.919 304.596,260.934 	"/>
	<text transform="matrix(1 0 0 1 117.7817 271.7048)"><tspan x="0" y="0" fill="#FFFFFF" font-family="'Helvetica'" font-size="15">A good girl is a girl of grace, </tspan><tspan x="0" y="18" fill="#FFFFFF" font-family="'Helvetica'" font-size="15">elegance and dignity</tspan></text>
</g>
<g>
	<g>
		<path fill="#2D2D2D" d="M78.738,198.187h224.73c5.752,0,10.459-4.706,10.459-10.459v-7.615c0-5.752-4.706-10.459-10.459-10.459
			H78.738c-5.752,0-10.459,4.706-10.459,10.459v7.615C68.279,193.48,72.986,198.187,78.738,198.187z"/>
		<path fill="#2D2D2D" d="M296.613,192.47c1.979,0.989,6.431,16.819,10.883,17.561c0,0-6.925-16.819,6.431-18.303"/>
	</g>
	<polygon fill="none" points="306.477,194.728 79.679,194.724 79.679,177.292 305.412,177.299 	"/>
	<text transform="matrix(1 0 0 1 79.6791 188.0774)" fill="#FFFFFF" font-family="'Helvetica'" font-size="15">Is it your job to tell me I’m wrong?</text>
</g>
</svg>
