<?xml version="1.0" encoding="utf-8"?>
<!-- Generator: Adobe Illustrator 18.0.0, SVG Export Plug-In . SVG Version: 6.00 Build 0)  -->
<!DOCTYPE svg PUBLIC "-//W3C//DTD SVG 1.1//EN" "http://www.w3.org/Graphics/SVG/1.1/DTD/svg11.dtd">
<svg version="1.1" id="Layer_1" xmlns="http://www.w3.org/2000/svg" xmlns:xlink="http://www.w3.org/1999/xlink" x="0px" y="0px"
	 viewBox="0 0 343 329.722" enable-background="new 0 0 343 329.722" xml:space="preserve">
<g>
	<g>
		<g>
		</g>
		
			<path fill="#FFD6C9" stroke="#FFFFFF" stroke-width="2" stroke-linecap="round" stroke-linejoin="round" stroke-miterlimit="10" d="
			M104.712,110.698c0,0-23.147,62.67,34.408,105.781l42.54,7.452l15.014-83.204l-56.303-37.193L104.712,110.698z"/>
		<path fill="#2D2D2D" stroke="#FFFFFF" stroke-width="2" stroke-miterlimit="10" d="M278.627,238.319
			c-28.022-48.418-34.407-163.554-34.407-163.554c0-36.807-29.838-66.645-66.646-66.645c-17.314,0-33.083,6.605-44.933,17.43
			c-24.418,7.776-42.109,30.631-42.109,57.626c0,15.747,14.219,26.675,24.082,37.436c0,0-17.722,10.128-17.5,12.667
			c3.5,40,13,37,15.059,59.504c2.64,28.855-8.417,57.146-24.559,71.996c-12.5,11.5-60.5,8.5-82,67.621h329.882
			C330.613,273.778,297.012,270.085,278.627,238.319z"/>
		<path fill="none" d="M-13.387-27.722v361.646h365V-27.722H-13.387z"/>
		<path fill="none" stroke="#FFFFFF" stroke-width="2" stroke-linecap="round" stroke-linejoin="round" d="M187.263,48.742
			c0,0,30.34,27.919,27.162,124.96c0,0-4.588,41.289,4.588,67.564"/>
		<path fill="none" stroke="#FFFFFF" stroke-width="2" stroke-linecap="round" stroke-linejoin="round" d="M144.04,105.742
			c0,0-7.926,82.379-38.24,132.503"/>
		<path fill="none" stroke="#FFFFFF" stroke-width="2" stroke-linecap="round" stroke-linejoin="round" d="M291.608,255.163
			c0,0,6.005,41.116-39.995,46.116c-36.437,3.961-121.185-21.568-167.769-33.845"/>
	</g>
	<path fill="none" stroke="#FFFFFF" stroke-width="2" stroke-linecap="round" stroke-linejoin="round" d="M60.041,276.039
		c0,0,13.845,8.436,13.845,37.436"/>
</g>
</svg>
