<?xml version="1.0" encoding="utf-8"?>
<!-- Generator: Adobe Illustrator 18.0.0, SVG Export Plug-In . SVG Version: 6.00 Build 0)  -->
<!DOCTYPE svg PUBLIC "-//W3C//DTD SVG 1.1//EN" "http://www.w3.org/Graphics/SVG/1.1/DTD/svg11.dtd">
<svg version="1.1" id="Layer_1" xmlns="http://www.w3.org/2000/svg" xmlns:xlink="http://www.w3.org/1999/xlink" x="0px" y="0px"
	 viewBox="0 0 312 312" enable-background="new 0 0 312 312" xml:space="preserve">
<g>
	<defs>
		<rect id="SVGID_1_" x="0" y="0" width="312" height="312"/>
	</defs>
	<clipPath id="SVGID_2_">
		<use xlink:href="#SVGID_1_"  overflow="visible"/>
	</clipPath>
	<rect x="0" y="0" clip-path="url(#SVGID_2_)" fill="#9D5F5A" width="312" height="312"/>
	<rect x="0" y="0" clip-path="url(#SVGID_2_)" fill="none" width="312" height="312"/>
	<g clip-path="url(#SVGID_2_)">
		<g>
			
				<path fill="#2D2D2D" stroke="#FFFFFF" stroke-width="2" stroke-linecap="round" stroke-linejoin="round" stroke-miterlimit="10" d="
				M252.704,211.854c0,0,12.739,10.005,32.239,14.005c16.714,3.429,32.75,9.5,38.25,25l15.11,58.647l-8.11,7.103l-23.75,9.5
				l-107.75,4.25l-36-2.5h-2.223l-36,2.5l-107.75-4.25l-23.75-9.5l-8.667-14.103l15.667-51.647c5.5-15.5,21.536-21.571,38.25-25
				c19.5-4,32.239-14.005,32.239-14.005l103.261,16.755l44.401-19.25L252.704,211.854z"/>
			
				<path fill="#2D2D2D" stroke="#FFFFFF" stroke-width="2" stroke-linecap="round" stroke-linejoin="round" stroke-miterlimit="10" d="
				M243.825,194.187c0,0,40.478,79.422,28.811,77.088c-11.667-2.333-12.333-7.667-25.667-3.333
				c-13.333,4.333-73.476,30.333-85.476,30.333"/>
			
				<path fill="#2D2D2D" stroke="#FFFFFF" stroke-width="2" stroke-linecap="round" stroke-linejoin="round" stroke-miterlimit="10" d="
				M79.162,194.187c0,0-40.478,79.422-28.811,77.088c11.667-2.333,12.333-7.667,25.667-3.333
				c13.333,4.333,73.476,30.333,85.476,30.333"/>
			
				<path fill="#9EE1D4" stroke="#FFFFFF" stroke-width="2" stroke-linecap="round" stroke-linejoin="round" stroke-miterlimit="10" d="
				M161.494,298.359c16.726,0,47.024-36,71.774-81.75s1.25-12.5,1.25-105s-73.024-91.5-73.024-91.5s-73.024-1-73.024,91.5
				s-23.5,59.25,1.25,105S144.768,298.359,161.494,298.359z"/>
			<path fill="none" stroke="#FFFFFF" stroke-width="2" stroke-linecap="round" stroke-linejoin="round" stroke-miterlimit="10" d="
				M114.26,39.366c0,0-21.66,25.823-15.425,71.212"/>
			<path fill="none" stroke="#FFFFFF" stroke-width="2" stroke-linecap="round" stroke-linejoin="round" stroke-miterlimit="10" d="
				M209.28,39.366c0,0,21.091,27.186,14.856,72.576"/>
			
				<path fill="#F9D4C9" stroke="#FFFFFF" stroke-width="2" stroke-linecap="round" stroke-linejoin="round" stroke-miterlimit="10" d="
				M222.518,125.609c0,0-7.548,93.25-61.024,93.25c-53.524,0-61.024-93.25-61.024-93.25l2.5-18.75l14.25-24.5l21.75-20l26.5-4.25
				l21.75,9.25l16,10.25l15,24.75L222.518,125.609z"/>
			<path fill="#FFFFFF" d="M97.931,110.428c1.413-4.385,3.143-9.02,5.255-13.668c12.679-27.902,32.833-42.651,58.283-42.651
				c25.45,0,45.604,14.749,58.283,42.651c2.136,4.702,3.882,9.389,5.304,13.819l-3.423,27.452c0,0-6.163-67.921-60.163-67.921
				s-60.066,67.921-60.066,67.921L97.931,110.428z"/>
			<path fill="none" stroke="#FFFFFF" stroke-width="2" stroke-linecap="round" stroke-linejoin="round" stroke-miterlimit="10" d="
				M93.72,139.859c0,0-3.75,62.75,60.75,85"/>
			<path fill="none" stroke="#FFFFFF" stroke-width="2" stroke-linecap="round" stroke-linejoin="round" stroke-miterlimit="10" d="
				M95.97,180.609c0,0,26.75,65.623,82.75,65.623"/>
			<path fill="none" stroke="#FFFFFF" stroke-width="2" stroke-linecap="round" stroke-linejoin="round" stroke-miterlimit="10" d="
				M228.97,156.859c0,0,0.5,45.25-29.25,70"/>
		</g>
		<g>
			<g>
				<g>
					<path fill="#2D2D2D" d="M151.939,151.132c0,0-0.539,0.638-1.134,1.734c-0.3,0.544-0.601,1.208-0.816,1.952
						c-0.208,0.743-0.325,1.58-0.172,2.385c0.062,0.403,0.196,0.792,0.392,1.144c0.178,0.362,0.442,0.664,0.705,0.941
						c0.276,0.271,0.57,0.498,0.87,0.69c0.3,0.182,0.589,0.357,0.877,0.475c0.564,0.265,1.061,0.422,1.404,0.523
						c0.355,0.098,0.552,0.156,0.552,0.156l-0.018,0.086c0,0-0.221,0.009-0.601-0.006c-0.19-0.004-0.417-0.023-0.681-0.07
						c-0.264-0.034-0.564-0.092-0.883-0.193c-0.325-0.081-0.668-0.222-1.018-0.394c-0.349-0.181-0.724-0.399-1.061-0.701
						c-0.325-0.306-0.681-0.648-0.913-1.091c-0.245-0.429-0.423-0.911-0.515-1.404c-0.086-0.493-0.079-0.987-0.024-1.453
						c0.037-0.471,0.184-0.901,0.319-1.307c0.294-0.805,0.705-1.474,1.104-1.995c0.791-1.052,1.539-1.528,1.539-1.528
						L151.939,151.132z"/>
				</g>
				<g>
					<path fill="#2D2D2D" d="M171.558,151.074c0,0,0.552,0.638,1.171,1.733c0.306,0.547,0.619,1.214,0.852,1.971
						c0.221,0.753,0.362,1.611,0.208,2.456c-0.074,0.42-0.221,0.826-0.429,1.191c-0.19,0.374-0.466,0.686-0.748,0.967
						c-0.282,0.276-0.589,0.504-0.895,0.697c-0.313,0.181-0.613,0.354-0.907,0.471c-0.57,0.261-1.073,0.412-1.428,0.507
						c-0.35,0.098-0.552,0.15-0.552,0.15l-0.019-0.086c0,0,0.184-0.12,0.503-0.299c0.325-0.178,0.778-0.435,1.275-0.765
						c0.251-0.156,0.503-0.363,0.76-0.555c0.251-0.205,0.491-0.443,0.711-0.685c0.417-0.51,0.754-1.084,0.84-1.75
						c0.141-0.654,0.049-1.384-0.08-2.077c-0.154-0.696-0.362-1.356-0.57-1.93c-0.417-1.139-0.76-1.939-0.76-1.939L171.558,151.074z
						"/>
				</g>
			</g>
			<g>
				<path fill="#2D2D2D" d="M169.995,157.869c-0.202-0.089-0.417-0.072-0.613-0.047c-0.785,0.144-1.49,0.075-2.189,0.428
					c-0.693,0.365-1.361,0.759-2.017,0.759h-0.006v0.434c-0.564,0.422-1.171,1.01-1.802,1.316c-0.325,0.132-0.644,0.401-0.987,0.478
					c-0.165,0.04-0.331,0.17-0.509,0.173l-0.515,0.081l-0.521-0.041c-0.178-0.006-0.337-0.075-0.509-0.112
					c-0.331-0.077-0.65-0.667-0.975-0.8c-0.632-0.305-1.239-1.53-1.803-1.53h-0.006l0,0c-0.656,0-1.33-0.394-2.023-0.759
					c-0.693-0.353-1.398-0.498-2.189-0.639c-0.196-0.028-0.405,0.063-0.607,0.152c-0.214,0.084-0.313,0.382-0.294,0.592
					c0.006,0.193,0.037,0.415,0.122,0.615c0.092,0.181,0.208,0.362,0.368,0.487c0.319,0.256,0.711,0.383,1.091,0.454
					c0.276,0.046,1.429,0.067,2.232,0.064c0.288,0.181,0.576,0.366,0.846,0.555c0.306,0.238,0.589,0.441,0.901,0.638
					c0.319,0.208,0.656,0.394,0.993,0.573c0.172,0.089,0.362,0.161,0.539,0.242c0.166,0.083,0.38,0.152,0.601,0.213
					c0.202,0.054,0.466,0.147,0.625,0.152l0.264,0.034l0.129,0.019l0.067-0.124l0.037-0.127h0.012l0.098,0.138
					c0.221-0.015,0.442,0.02,0.662-0.008c0.227-0.019,0.405-0.072,0.607-0.121c0.405-0.107,0.748-0.273,1.11-0.432
					c0.337-0.179,0.675-0.355,0.993-0.564c0.307-0.199,0.595-0.398,0.902-0.638c0.276-0.188,0.558-0.368,0.84-0.549
					c0.809,0.003,1.962-0.012,2.232-0.058c0.386-0.071,0.778-0.19,1.091-0.448c0.166-0.126,0.282-0.291,0.374-0.474
					c0.08-0.19,0.11-0.389,0.122-0.592C170.301,158.212,170.209,157.945,169.995,157.869z"/>
			</g>
		</g>
		<g>
			<g>
				<path fill="#FFA298" d="M178.282,181.038c-0.79-0.295-1.557-0.642-2.332-0.957l-2.346-0.889
					c-0.775-0.303-1.542-0.668-2.332-0.994c-0.782-0.334-1.572-0.662-2.42-0.902c-0.413-0.137-0.848-0.24-1.291-0.342
					c-0.443-0.092-0.9-0.17-1.394-0.192l-0.177-0.011l-0.155,0.006l-0.081,0.005l-0.31,0.026c-0.199,0.004-0.443,0.048-0.708,0.107
					c-0.532,0.098-0.93,0.249-1.372,0.387c-0.679,0.253-1.321,0.542-1.963,0.869c-0.634-0.326-1.276-0.618-1.955-0.87
					c-0.436-0.137-0.863-0.292-1.335-0.378c-0.221-0.057-0.457-0.102-0.723-0.113l-0.383-0.028
					c-0.081-0.002-0.074-0.017-0.236-0.005l-0.155,0.011c-0.214,0.022-0.406,0.024-0.642,0.061l-0.715,0.127
					c-0.45,0.107-0.878,0.207-1.291,0.343c-0.848,0.24-1.63,0.574-2.42,0.902l-1.173,0.505l-0.575,0.253l-0.266,0.114l-0.295,0.112
					l-2.361,0.897c-0.782,0.315-1.557,0.658-2.339,0.95c-0.767,0.275-1.52,0.574-2.28,0.886c-0.649,0.05,0,0.12,0,0.12
					c0.207,0.009,1.424,0.585,2.059,1.086c0.443,0.347,0.981,0.753,1.623,1.205c0.635,0.448,1.365,0.935,2.199,1.396
					c0.834,0.465,1.756,0.935,2.737,1.4c0.509,0.216,1.018,0.437,1.55,0.664c0.531,0.209,1.092,0.384,1.66,0.564
					c1.144,0.33,2.324,0.618,3.572,0.828c0.62,0.077,1.277,0.188,1.896,0.235c0.627,0.033,1.181,0.083,1.867,0.099
					c0.62-0.009,1.269-0.066,1.896-0.098c0.635-0.048,1.254-0.159,1.874-0.236c1.232-0.206,2.428-0.496,3.571-0.826
					c0.561-0.184,1.129-0.356,1.66-0.563c0.524-0.227,1.04-0.448,1.542-0.664c0.989-0.467,1.904-0.937,2.737-1.402
					c0.834-0.461,1.572-0.946,2.206-1.396c0.627-0.452,1.181-0.848,1.616-1.195c0.635-0.502,1.852-1.077,2.066-1.077h0.066
					C181.249,182.058,179.057,181.316,178.282,181.038z"/>
			</g>
		</g>
		<path fill="#FFFFFF" d="M175.408,126.199c1.881-1.646,4.783-4.902,11.438-4.902c4.257,0,8.816,2.316,11.303,3.997
			c-1.467,2.26-5.699,4.862-10.721,4.862c-3.013,0-5.372-0.865-5.372-0.865s-0.686-0.237-1.562-0.54
			c-0.789-0.385-1.594-0.225-3.682-0.695C174.699,127.582,174.085,127.353,175.408,126.199z"/>
		<path fill="#2D2D2D" d="M172.593,110.809c0,0,20.549-7.268,34.057,0.998C206.651,111.807,192.608,93.573,172.593,110.809z"/>
		<g>
			<path fill="#2D2D2D" d="M181.816,129.157c0,0-0.146,0.035-0.435,0.009c-0.277-0.041-0.682-0.1-1.199-0.176
				c-0.514-0.07-1.138-0.156-1.854-0.254c-0.732-0.114-1.486-0.154-2.46-0.37c-0.242-0.063-0.493-0.135-0.774-0.284
				c-0.139-0.076-0.293-0.176-0.445-0.344c-0.15-0.161-0.297-0.44-0.303-0.731c0.007-0.589,0.272-0.884,0.45-1.133
				c0.198-0.247,0.399-0.442,0.599-0.63c0.753-0.691,1.513-1.44,2.471-2.152c0.932-0.715,2.018-1.35,3.206-1.778
				c1.182-0.435,2.441-0.722,3.702-0.805c0.64-0.054,1.237-0.043,1.901-0.034l0.885,0.054l0.941,0.102
				c1.216,0.179,2.39,0.483,3.487,0.871c1.1,0.384,2.106,0.895,3.021,1.423c0.918,0.527,1.718,1.128,2.423,1.709
				c1.407,1.174,2.384,2.341,3.003,3.191c0.617,0.855,0.884,1.393,0.884,1.393s-0.398-0.448-1.168-1.138
				c-0.766-0.69-1.904-1.624-3.372-2.548c-0.732-0.466-1.561-0.901-2.447-1.322c-0.888-0.419-1.861-0.764-2.876-1.065
				c-1.016-0.298-2.091-0.504-3.192-0.613l-0.807-0.073l-0.879-0.037c-0.516,0.008-1.105,0.005-1.647,0.065
				c-1.101,0.104-2.186,0.291-3.198,0.652c-1.01,0.359-1.959,0.835-2.831,1.417c-0.863,0.566-1.69,1.274-2.516,1.869
				c-0.189,0.139-0.365,0.28-0.493,0.406c-0.138,0.12-0.179,0.252-0.176,0.153c-0.038-0.139-0.095-0.078,0.041,0.023
				c0.113,0.092,0.29,0.184,0.469,0.261c0.73,0.293,1.594,0.5,2.265,0.73c0.695,0.215,1.294,0.431,1.786,0.611
				c0.493,0.174,0.871,0.355,1.125,0.453C181.661,129.152,181.816,129.157,181.816,129.157z"/>
		</g>
		<circle fill="#2D2D2D" cx="187.077" cy="125.727" r="4.009"/>
		<path fill="#FFFFFF" d="M147.587,126.199c-1.881-1.646-4.783-4.902-11.438-4.902c-4.257,0-8.816,2.316-11.303,3.997
			c1.467,2.26,5.699,4.862,10.721,4.862c3.013,0,5.372-0.865,5.372-0.865s0.686-0.237,1.562-0.54
			c0.789-0.385,1.594-0.225,3.682-0.695C148.296,127.582,148.91,127.353,147.587,126.199z"/>
		<path fill="#2D2D2D" d="M150.402,110.809c0,0-20.549-7.268-34.057,0.998C116.344,111.807,130.387,93.573,150.402,110.809z"/>
		<g>
			<path fill="#2D2D2D" d="M141.179,129.157c0,0,0.155-0.005,0.411-0.096c0.255-0.098,0.632-0.279,1.125-0.453
				c0.492-0.18,1.091-0.396,1.786-0.611c0.671-0.23,1.534-0.437,2.265-0.73c0.179-0.077,0.356-0.169,0.469-0.261
				c0.135-0.101,0.078-0.161,0.041-0.023c0.003,0.099-0.038-0.033-0.176-0.153c-0.128-0.126-0.304-0.266-0.493-0.406
				c-0.826-0.595-1.653-1.302-2.516-1.869c-0.872-0.581-1.82-1.057-2.831-1.417c-1.012-0.361-2.096-0.548-3.198-0.652
				c-0.541-0.06-1.131-0.058-1.647-0.065l-0.879,0.037l-0.807,0.073c-1.1,0.108-2.176,0.315-3.192,0.613
				c-1.014,0.301-1.988,0.646-2.876,1.065c-0.885,0.421-1.715,0.856-2.447,1.322c-1.468,0.924-2.606,1.858-3.373,2.548
				c-0.77,0.689-1.168,1.138-1.168,1.138s0.267-0.538,0.884-1.393c0.619-0.849,1.596-2.017,3.003-3.191
				c0.705-0.581,1.506-1.182,2.423-1.709c0.915-0.529,1.92-1.04,3.021-1.423c1.097-0.388,2.272-0.693,3.487-0.871l0.941-0.102
				l0.885-0.054c0.665-0.009,1.261-0.02,1.901,0.034c1.26,0.083,2.519,0.369,3.702,0.805c1.188,0.428,2.273,1.063,3.206,1.778
				c0.958,0.711,1.719,1.461,2.471,2.152c0.2,0.189,0.401,0.384,0.599,0.63c0.178,0.249,0.443,0.544,0.45,1.133
				c-0.006,0.291-0.153,0.569-0.303,0.731c-0.152,0.167-0.306,0.268-0.445,0.344c-0.282,0.15-0.532,0.221-0.774,0.284
				c-0.974,0.216-1.728,0.256-2.46,0.37c-0.716,0.098-1.34,0.183-1.854,0.254c-0.516,0.076-0.922,0.136-1.199,0.176
				C141.324,129.191,141.179,129.157,141.179,129.157z"/>
		</g>
		<circle fill="#2D2D2D" cx="135.918" cy="125.727" r="4.009"/>
	</g>
	<rect x="0" y="0" clip-path="url(#SVGID_2_)" fill="none" width="312" height="312"/>
</g>
</svg>
