<?xml version="1.0" encoding="utf-8"?>
<!-- Generator: Adobe Illustrator 18.0.0, SVG Export Plug-In . SVG Version: 6.00 Build 0)  -->
<!DOCTYPE svg PUBLIC "-//W3C//DTD SVG 1.1//EN" "http://www.w3.org/Graphics/SVG/1.1/DTD/svg11.dtd">
<svg version="1.1" id="Layer_1" xmlns="http://www.w3.org/2000/svg" xmlns:xlink="http://www.w3.org/1999/xlink" x="0px" y="0px"
	 viewBox="0 0 841.89 1190.55" enable-background="new 0 0 841.89 1190.55" xml:space="preserve">
<g>
	<g>
		<g>
			<path fill="#222222" d="M0,174.33v841.89h841.89V174.33H0z"/>
		</g>
	</g>
	<path fill="#9F605A" d="M775.713,904.07H291.94c-30.555,0-55.324,24.768-55.324,55.324s24.768,55.324,55.324,55.324h483.77"/>
	<path fill="#FFFFFF" d="M289.891,992.724c-18.408,0-33.331-14.923-33.331-33.331s14.923-33.331,33.331-33.331"/>
	<rect x="298.089" y="926.062" fill="#FFFFFF" width="467.379" height="66.662"/>
	
		<line fill="none" stroke="#E72B66" stroke-width="2" stroke-linecap="round" stroke-linejoin="round" stroke-miterlimit="10" x1="310.383" y1="940.95" x2="765.466" y2="940.95"/>
	
		<line fill="none" stroke="#E72B66" stroke-width="2" stroke-linecap="round" stroke-linejoin="round" stroke-miterlimit="10" x1="310.383" y1="959.393" x2="765.466" y2="959.393"/>
	
		<line fill="none" stroke="#E72B66" stroke-width="2" stroke-linecap="round" stroke-linejoin="round" stroke-miterlimit="10" x1="310.383" y1="977.834" x2="765.466" y2="977.834"/>
	<circle fill="#9F605A" cx="775.459" cy="1003.719" r="10.995"/>
	<circle fill="#9F605A" cx="775.459" cy="915.065" r="10.995"/>
	<path fill="#E72B66" d="M806.448,793.422H322.675c-30.555,0-55.324,24.768-55.324,55.324c0,30.555,24.768,55.324,55.324,55.324
		h483.77"/>
	<path fill="#FFFFFF" d="M320.628,882.077c-18.408,0-33.331-14.923-33.331-33.331c0-18.408,14.923-33.331,33.331-33.331"/>
	<rect x="328.824" y="815.415" fill="#FFFFFF" width="467.379" height="66.662"/>
	
		<line fill="none" stroke="#8F443E" stroke-width="2" stroke-miterlimit="10" x1="341.118" y1="830.303" x2="796.203" y2="830.303"/>
	
		<line fill="none" stroke="#8F443E" stroke-width="2" stroke-miterlimit="10" x1="341.118" y1="848.746" x2="796.203" y2="848.746"/>
	
		<line fill="none" stroke="#8F443E" stroke-width="2" stroke-miterlimit="10" x1="341.118" y1="867.186" x2="796.203" y2="867.186"/>
	<circle fill="#E72B66" cx="806.448" cy="893.072" r="10.995"/>
	<circle fill="#E72B66" cx="806.448" cy="804.417" r="10.995"/>
	<rect x="796.203" y="815.415" fill="#222222" width="12.294" height="66.662"/>
	<path fill="#9F605A" d="M267.729,682.772h483.77c30.555,0,55.324,24.768,55.324,55.324s-24.768,55.324-55.324,55.324h-483.77"/>
	<path fill="#FFFFFF" d="M753.549,771.429c18.408,0,33.331-14.923,33.331-33.331s-14.923-33.331-33.331-33.331"/>
	<rect x="277.974" y="704.765" fill="#FFFFFF" width="467.379" height="66.662"/>
	
		<line fill="none" stroke="#E72B66" stroke-width="2" stroke-linecap="round" stroke-linejoin="round" stroke-miterlimit="10" x1="733.059" y1="719.656" x2="277.974" y2="719.656"/>
	
		<line fill="none" stroke="#E72B66" stroke-width="2" stroke-linecap="round" stroke-linejoin="round" stroke-miterlimit="10" x1="733.059" y1="738.099" x2="277.974" y2="738.099"/>
	
		<line fill="none" stroke="#E72B66" stroke-width="2" stroke-linecap="round" stroke-linejoin="round" stroke-miterlimit="10" x1="733.059" y1="756.539" x2="277.974" y2="756.539"/>
	<circle fill="#9F605A" cx="267.729" cy="782.424" r="10.995"/>
	<circle fill="#9F605A" cx="267.729" cy="693.77" r="10.995"/>
	<rect x="265.68" y="704.765" fill="#222222" width="12.294" height="66.662"/>
	<path fill="#9F605A" d="M241.466,572.125h483.77c30.555,0,55.324,24.768,55.324,55.324s-24.768,55.324-55.324,55.324h-483.77"/>
	<path fill="#FFFFFF" d="M727.286,660.782c18.408,0,33.331-14.923,33.331-33.331c0-18.408-14.923-33.331-33.331-33.331"/>
	<rect x="251.711" y="594.118" fill="#FFFFFF" width="467.379" height="66.662"/>
	
		<line fill="none" stroke="#E72B66" stroke-width="2" stroke-linecap="round" stroke-linejoin="round" stroke-miterlimit="10" x1="706.796" y1="609.008" x2="251.711" y2="609.008"/>
	
		<line fill="none" stroke="#E72B66" stroke-width="2" stroke-linecap="round" stroke-linejoin="round" stroke-miterlimit="10" x1="706.796" y1="645.892" x2="251.711" y2="645.892"/>
	<circle fill="#9F605A" cx="241.466" cy="671.777" r="10.995"/>
	<circle fill="#9F605A" cx="241.466" cy="583.123" r="10.995"/>
	
		<line fill="none" stroke="#E72B66" stroke-width="2" stroke-linecap="round" stroke-linejoin="round" stroke-miterlimit="10" x1="706.796" y1="627.449" x2="251.711" y2="627.449"/>
	<polygon fill="#77C5BB" points="671.442,733.595 653.816,719.977 634.658,733.595 634.658,624.769 671.442,624.769 	"/>
	<rect x="239.416" y="594.118" fill="#222222" width="12.294" height="66.662"/>
	<rect x="765.466" y="926.062" fill="#222222" width="12.294" height="66.662"/>
	<path fill="none" stroke="#FFFFFF" stroke-width="2" stroke-linecap="round" stroke-linejoin="round" stroke-miterlimit="10" d="
		M530.759,223.872H394.915c-151.03,0-273.465,122.435-273.465,273.465v505.803"/>
	
		<path fill="#77C5BB" stroke="#FFFFFF" stroke-width="2" stroke-linecap="round" stroke-linejoin="round" stroke-miterlimit="10" d="
		M681.773,414.232c0-96.073-67.61-173.955-151.014-173.955s-151.014,77.882-151.014,173.955H681.773z"/>
	
		<polygon fill="#77C5BB" stroke="#FFFFFF" stroke-width="2" stroke-linecap="round" stroke-linejoin="round" stroke-miterlimit="10" points="
		505.238,242.926 510.374,204.588 545.502,204.588 550.638,242.926 	"/>
	
		<rect x="13.953" y="993.564" fill="#77C5BB" stroke="#FFFFFF" stroke-width="2" stroke-linecap="round" stroke-linejoin="round" stroke-miterlimit="10" width="207.481" height="23.153"/>
</g>
</svg>
