<?xml version="1.0" encoding="utf-8"?>
<!-- Generator: Adobe Illustrator 18.0.0, SVG Export Plug-In . SVG Version: 6.00 Build 0)  -->
<!DOCTYPE svg PUBLIC "-//W3C//DTD SVG 1.1//EN" "http://www.w3.org/Graphics/SVG/1.1/DTD/svg11.dtd">
<svg version="1.1" id="Layer_1" xmlns="http://www.w3.org/2000/svg" xmlns:xlink="http://www.w3.org/1999/xlink" x="0px" y="0px"
	 viewBox="0 0 424 329" enable-background="new 0 0 424 329" xml:space="preserve">
<g>
	<g>
		<defs>
			<rect id="SVGID_3_" x="-32.457" y="-36.904" width="469.352" height="365.904"/>
		</defs>
		<clipPath id="SVGID_1_">
			<use xlink:href="#SVGID_3_"  overflow="visible"/>
		</clipPath>
		<g clip-path="url(#SVGID_1_)">
			<g>
				<circle fill="#FFFFFF" stroke="#EC2565" stroke-width="2" stroke-miterlimit="10" cx="101.181" cy="262.101" r="96"/>
				<path fill="none" stroke="#EC2565" stroke-width="2" stroke-miterlimit="10" d="M28.181,262.101c0-40.317,32.683-73,73-73
					s73,32.683,73,73s-32.683,73-73,73c-30.924,0-57.358-19.229-67.995-46.383"/>
				<circle fill="none" stroke="#EC2565" stroke-width="2" stroke-miterlimit="10" cx="101.181" cy="262.101" r="63"/>
			</g>
			<circle opacity="0.5" fill="#EFD3C7" cx="30.52" cy="158.018" r="11.661"/>
			<circle opacity="0.5" fill="#EFD3C7" cx="63.657" cy="150.178" r="6.5"/>
			<circle opacity="0.5" fill="#EFD3C7" cx="48.681" cy="118.344" r="6.5"/>
			
				<circle fill="#6BD3C2" stroke="#FFFFFF" stroke-width="2" stroke-linecap="round" stroke-linejoin="round" stroke-miterlimit="10" cx="30.52" cy="158.018" r="11.661"/>
			
				<circle fill="#6BD3C2" stroke="#FFFFFF" stroke-width="2" stroke-linecap="round" stroke-linejoin="round" stroke-miterlimit="10" cx="63.657" cy="150.178" r="6.5"/>
			
				<circle fill="#6BD3C2" stroke="#FFFFFF" stroke-width="2" stroke-linecap="round" stroke-linejoin="round" stroke-miterlimit="10" cx="48.681" cy="118.344" r="6.5"/>
			
				<circle fill="none" stroke="#FFFFFF" stroke-width="2" stroke-linecap="round" stroke-linejoin="round" cx="95.157" cy="242.678" r="13"/>
			
				<circle fill="none" stroke="#FFFFFF" stroke-width="2" stroke-linecap="round" stroke-linejoin="round" cx="108.157" cy="219.678" r="7"/>
			
				<path fill="#9E5F59" stroke="#FFFFFF" stroke-width="2" stroke-linecap="round" stroke-linejoin="round" stroke-miterlimit="10" d="
				M256.23,136.737l-56.303-37.193l-35.659,7.165c0,0-23.147,62.67,34.408,105.781c0,0,12.152,11.554,2.272,29.08
				c-9.88,17.527,70.088,49.064,70.088,49.064l60.032,16.854c0,0-53-82.501-55-104.083s24-63.744,15-102.512"/>
			<path fill="#2D2D2D" stroke="#FFFFFF" stroke-width="2" stroke-linecap="round" stroke-linejoin="round" d="M210.562,139.661
				c33.399,0,60.474-27.075,60.474-60.474s-27.075-60.474-60.474-60.474s-60.474,27.075-60.474,60.474
				c0,15.747,6.019,30.089,15.882,40.85l16.648,6.546c0,0,2.504-1.629,3.233-4.391C186.581,119.429,192.42,139.661,210.562,139.661z
				"/>
			
				<path fill="#FFFFFF" stroke="#FFFFFF" stroke-width="2" stroke-linecap="round" stroke-linejoin="round" stroke-miterlimit="10" d="
				M170.002,82.031c0-36.807,29.838-66.645,66.645-66.645c16.688,0,31.931,6.148,43.622,16.284
				c-12.22-14.095-30.242-23.023-50.361-23.023c-36.807,0-66.645,29.838-66.645,66.646c0,20.119,8.928,38.141,23.023,50.361
				C176.15,113.962,170.002,98.719,170.002,82.031z"/>
			
				<path fill="#9E5F59" stroke="#FFFFFF" stroke-width="2" stroke-linecap="round" stroke-linejoin="round" stroke-miterlimit="10" d="
				M183.348,128.292c0,0-6.986-18.144-17.673-18.144c-2.815,0,0.313,6.257,0.782,16.58s2.815,31.123,19.393,31.123"/>
			<path fill="none" stroke="#FFFFFF" stroke-width="2" stroke-linecap="round" stroke-linejoin="round" d="M166.457,110.15
				c0,0,10.01-0.626,8.133,24.085"/>
			
				<path fill="#FFFFFF" stroke="#96DED1" stroke-width="2" stroke-linecap="round" stroke-linejoin="round" stroke-miterlimit="10" d="
				M198.446,243.876c0,0-33.553,28.615-76.51,36.122c-42.957,7.507-51.299,64.228-51.299,64.228l200.399,140.967l82.787-21.27
				l58.806-72.569l-26.188-93.781c-2.415-20.378-33.917-40.481-33.917-40.481s-15.456-13.549-29.956-15.522
				c-14.5-1.973-34.738-8.128-34.738-8.128S272.008,286.516,198.446,243.876z"/>
			<path fill="none" stroke="#FFFFFF" stroke-width="2" stroke-linecap="round" stroke-linejoin="round" d="M192.537,383.847
				c-5.503,0-10.532-2.03-14.379-5.382c-4.606-4.014-7.517-9.924-7.517-16.513c0-12.093,9.803-21.896,21.896-21.896"/>
			
				<circle fill="#6BD3C2" stroke="#FFFFFF" stroke-width="2" stroke-linecap="round" stroke-linejoin="round" stroke-miterlimit="10" cx="95.157" cy="242.678" r="13"/>
			
				<circle fill="#6BD3C2" stroke="#FFFFFF" stroke-width="2" stroke-linecap="round" stroke-linejoin="round" stroke-miterlimit="10" cx="108.157" cy="219.678" r="7"/>
			<path fill="#2D2D2D" stroke="#FFFFFF" stroke-width="2" stroke-miterlimit="10" d="M172.719,100.893
				c0,0,11.462,51.75,22.349,65.208s14.5,17.687,31,23.694c10.632,3.871,19.909-10.581,25-6.701
				c21,16.007,35.594-0.629,44.004-20.606c20.471-48.627,18.031-72.892,18.031-72.892"/>
			<circle fill="#2D2D2D" cx="241.633" cy="85.209" r="71.47"/>
			<path opacity="0.17" fill="#FFFFFF" d="M415.132,336.275l-28.472,41.011l-113.121,31c0,0-130.879-39-135.879-55.741
				c-5-16.741-5-37.259,14.931-91.259s6.699-171.204,6.699-171.204c0-44.372,35.971-80.343,80.343-80.343
				s80.343,35.971,80.343,80.343c0,0,1.684,79.657,20.684,118.93S411.603,285.264,415.132,336.275z"/>
			<g>
				<path fill="none" stroke="#96DED1" stroke-width="2" stroke-linecap="round" stroke-linejoin="round" d="M300.856,202.611
					c0,0,5.839,26.157,20.436,44.567c14.597,18.41,35.45,44.268,25.441,61.576"/>
				<path fill="none" stroke="#96DED1" stroke-width="2" stroke-linecap="round" stroke-linejoin="round" d="M258.733,243.483
					c0,0-12.095,15.014-5.839,26.275c6.256,11.261,19.602,24.607,7.507,38.995"/>
				<path fill="none" stroke="#96DED1" stroke-width="2" stroke-linecap="round" stroke-linejoin="round" d="M239.633,9.739
					c36.807,0,66.645,29.838,66.645,66.645c0,0,6.386,115.136,34.408,163.554c18.385,31.766,41.289,53.801,28.152,68.815"/>
				<path fill="none" stroke="#96DED1" stroke-width="2" stroke-linecap="round" stroke-linejoin="round" d="M172.721,329
					c-8.328-12.231,5.227-35.352,15.633-71.546c10.222-35.553,3.671-89.863-3.78-129.732c-0.248-1.329-1.299-2.866-1.549-4.162"/>
				<path fill="none" stroke="#96DED1" stroke-width="2" stroke-linecap="round" stroke-linejoin="round" d="M253.675,44.286
					c0,0,30.34,27.919,27.162,124.96c0,0-4.588,41.289,4.588,67.564s22.521,59.223,4.171,70.067
					c-18.351,10.844-26.692,27.526-12.512,38.787"/>
				<path fill="none" stroke="#96DED1" stroke-width="2" stroke-linecap="round" stroke-linejoin="round" d="M210.452,101.286
					c0,0-15.312,126.228-63.123,174.832"/>
				<path fill="none" stroke="#96DED1" stroke-width="2" stroke-linecap="round" stroke-linejoin="round" d="M415.132,336.275
					l-28.472,41.011l-113.121,31c0,0-130.879-39-135.879-55.741c-5-16.741-5-37.259,14.931-91.259s6.699-171.204,6.699-171.204
					c0-44.372,35.971-80.343,80.343-80.343s80.343,35.971,80.343,80.343c0,0,1.684,79.657,20.684,118.93
					S411.603,285.264,415.132,336.275z"/>
			</g>
			
				<path fill="#6BD3C2" stroke="#FFFFFF" stroke-width="2" stroke-linecap="round" stroke-linejoin="round" stroke-miterlimit="10" d="
				M23.215,158.018c0-4.035,3.271-7.305,7.305-7.305"/>
			
				<path fill="#6BD3C2" stroke="#FFFFFF" stroke-width="2" stroke-linecap="round" stroke-linejoin="round" stroke-miterlimit="10" d="
				M87.49,242.678c0-4.234,3.432-7.667,7.667-7.667"/>
		</g>
	</g>
	<path fill="none" stroke="#96DED1" stroke-width="2" stroke-linecap="round" stroke-linejoin="round" stroke-miterlimit="10" d="
		M121.322,279.525c0,0,13.845,8.436,13.845,37.436"/>
</g>
</svg>
