<?xml version="1.0" encoding="utf-8"?>
<!-- Generator: Adobe Illustrator 18.0.0, SVG Export Plug-In . SVG Version: 6.00 Build 0)  -->
<!DOCTYPE svg PUBLIC "-//W3C//DTD SVG 1.1//EN" "http://www.w3.org/Graphics/SVG/1.1/DTD/svg11.dtd">
<svg version="1.1" id="Layer_1" xmlns="http://www.w3.org/2000/svg" xmlns:xlink="http://www.w3.org/1999/xlink" x="0px" y="0px"
	 viewBox="0 0 404.938 357.431" enable-background="new 0 0 404.938 357.431" xml:space="preserve">
<g>
	<g>
		
			<ellipse fill="#FFFFFF" stroke="#9BD2CA" stroke-width="2" stroke-miterlimit="10" cx="117.703" cy="195.425" rx="102.172" ry="158.279"/>
		<path fill="#2E2D2E" d="M193.925,78.234c-7.219-11.184-15.325-20.567-24.088-28.006l0.14-0.165c0,0-1.188-1.062-1.5-3.438
			s-1.75-8.688-9-9.25c0,0-5.125-5.062-7.625-3.812s-1.438,2.188-1.438,2.188s-3.938-3.562-5.125-6.5s-4.562-7-7.25-6.938
			c0,0-2.375-5.562-4.125-5.938s-2.312,0.75-2.25,1.625c0,0-3.312,1.375-6.812-0.875c0,0,1.5-2.375,0-3.313
			s-3.688-0.312-3.688-0.312s-0.562-3.5-3.375-3.5h-0.108c-2.812,0-3.375,3.5-3.375,3.5s-2.188-0.625-3.688,0.312s0,3.313,0,3.313
			c-3.5,2.25-6.812,0.875-6.812,0.875c0.062-0.875-0.5-2-2.25-1.625s-4.125,5.938-4.125,5.938c-2.688-0.062-6.062,4-7.25,6.938
			s-5.125,6.5-5.125,6.5s1.062-0.938-1.438-2.188s-7.625,3.812-7.625,3.812c-7.25,0.562-8.688,6.875-9,9.25s-1.5,3.438-1.5,3.438
			l-1.42,1.459C55.882,58.745,48.287,67.69,41.48,78.234c-19.632,30.412-30.443,70.729-30.443,113.524s10.812,83.112,30.443,113.524
			c20.156,31.225,47.226,48.421,76.223,48.421c28.996,0,56.065-17.196,76.222-48.421c19.632-30.413,30.443-70.729,30.443-113.524
			S213.557,108.647,193.925,78.234z M117.703,350.038c-56.428,0-102.171-70.864-102.171-158.279
			c0-58.106,20.212-108.9,50.338-136.428l2.123-1.768c0.938-0.938,1.938-4.438,1.938-4.438c1.125,1.562,3.5,0,3.5,0
			s1.25-1.188,0.75-2.812s-2.562-1.25-2.562-1.25C72.431,39.938,77.743,41,77.743,41c-0.938,2.375,1.688,3.562,3.438,2.812
			s1.438-3.188,1.438-3.188c7.312,0.812,10.5-7.062,10.5-7.062c4.625,2.875,8.417,1.75,8.417,1.75c1.289,0,2.333-1.045,2.333-2.333
			s-1.045-2.333-2.333-2.333c0,0-3.354-0.929,0.271-4.833c2.532-2.728,6.312-1.812,6.312-1.812s4.457,0.745,5.125,3.312
			c0.203,0.781-0.293,1.479-0.293,1.479c-0.393-0.3-0.883-0.479-1.416-0.479c-1.289,0-2.333,1.044-2.333,2.333
			c0,1.289,1.045,2.333,2.333,2.333h12.4c1.289,0,2.333-1.044,2.333-2.333c0-1.289-1.045-2.333-2.333-2.333
			c-0.532,0-1.023,0.178-1.416,0.479c0,0-0.496-0.697-0.293-1.479c0.668-2.568,5.125-3.312,5.125-3.312s3.78-0.915,6.312,1.812
			c3.625,3.904,0.271,4.833,0.271,4.833c-1.289,0-2.333,1.044-2.333,2.333s1.045,2.333,2.333,2.333c0,0,3.792,1.125,8.417-1.75
			c0,0,3.188,7.875,10.5,7.062c0,0-0.312,2.438,1.438,3.188s4.375-0.438,3.438-2.812c0,0,5.312-1.062,6.125,4.062
			c0,0-2.062-0.375-2.562,1.25s0.75,2.812,0.75,2.812s2.375,1.562,3.5,0c0,0,1,3.5,1.938,4.438l2.737,2.392
			c29.752,27.667,49.662,78.134,49.662,135.804C219.874,279.174,174.131,350.038,117.703,350.038z"/>
		
			<line fill="none" stroke="#9BD2CA" stroke-width="2" stroke-linecap="round" stroke-linejoin="round" stroke-miterlimit="10" x1="100.975" y1="74.626" x2="59.475" y2="116.126"/>
		
			<line fill="none" stroke="#9BD2CA" stroke-width="2" stroke-linecap="round" stroke-linejoin="round" stroke-miterlimit="10" x1="123.975" y1="82.425" x2="56.574" y2="149.827"/>
		
			<line fill="none" stroke="#9BD2CA" stroke-width="2" stroke-linecap="round" stroke-linejoin="round" stroke-miterlimit="10" x1="151.403" y1="232.45" x2="84.002" y2="299.851"/>
	</g>
	<g>
		<defs>
			<rect id="SVGID_1_" x="20.548" y="0" width="456" height="357.431"/>
		</defs>
		<clipPath id="SVGID_2_">
			<use xlink:href="#SVGID_1_"  overflow="visible"/>
		</clipPath>
		
			<path clip-path="url(#SVGID_2_)" fill="#FBD5CA" stroke="#FFFFFF" stroke-width="2" stroke-linecap="round" stroke-linejoin="round" stroke-miterlimit="10" d="
			M165.948,134.819c0,0-23.147,62.67,34.408,105.781l42.54,7.452l15.014-83.204l-56.303-37.193L165.948,134.819z"/>
		
			<path clip-path="url(#SVGID_2_)" fill="#9F605A" stroke="#FFFFFF" stroke-width="2" stroke-linecap="round" stroke-linejoin="round" d="
			M212.242,167.771c33.399,0,60.474-27.075,60.474-60.474s-27.075-60.474-60.474-60.474s-60.474,27.075-60.474,60.474
			c0,15.747,6.019,30.089,15.882,40.85l16.648,6.546c0,0,2.504-1.629,3.233-4.391S194.099,167.771,212.242,167.771z"/>
		
			<path clip-path="url(#SVGID_2_)" fill="#E72B66" stroke="#FFFFFF" stroke-width="2" stroke-linecap="round" stroke-linejoin="round" stroke-miterlimit="10" d="
			M171.682,110.14c0-36.807,29.838-66.645,66.645-66.645c16.688,0,31.931,6.148,43.622,16.284
			c-12.22-14.095-30.242-23.023-50.361-23.023c-36.807,0-66.645,29.838-66.645,66.646c0,20.119,8.928,38.141,23.023,50.361
			C177.83,142.072,171.682,126.828,171.682,110.14z"/>
		
			<path clip-path="url(#SVGID_2_)" fill="#FBD5CA" stroke="#FFFFFF" stroke-width="2" stroke-linecap="round" stroke-linejoin="round" stroke-miterlimit="10" d="
			M185.028,156.402c0,0-6.986-18.144-17.673-18.144c-2.815,0,0.313,6.257,0.782,16.58c0.469,10.322,2.815,31.123,19.393,31.123"/>
		
			<path clip-path="url(#SVGID_2_)" fill="none" stroke="#FFFFFF" stroke-width="2" stroke-linecap="round" stroke-linejoin="round" d="
			M168.137,138.259c0,0,10.009-0.626,8.133,24.085"/>
		
			<circle clip-path="url(#SVGID_2_)" fill="#E72B66" stroke="#FFFFFF" stroke-width="2" stroke-linecap="round" stroke-linejoin="round" cx="258.015" cy="80.568" r="18.318"/>
		
			<path clip-path="url(#SVGID_2_)" fill="#FBD5CA" stroke="#FFFFFF" stroke-width="2" stroke-linecap="round" stroke-linejoin="round" stroke-miterlimit="10" d="
			M388.121,325.683c-2.415-20.378-33.917-40.481-33.917-40.481l-151.576-15.522c0,0-36.054,30.922-79.012,38.429
			c-42.957,7.507-51.299,64.228-51.299,64.228l200.399,140.967l82.787-21.27l58.806-72.569L388.121,325.683z"/>
		<path clip-path="url(#SVGID_2_)" fill="#9F605A" d="M368.015,331.255c13.137-15.014-10.01-36.91-28.152-68.815
			c-18.142-31.905-39.829-146.454-39.829-146.454c0-24.811-9.922-46.229-34.734-46.229s-44.925,20.114-44.925,44.925
			c0,0-5.005,145.881-28.152,182.166c-20.254,31.749-28.653,42.423-20.325,54.654c0,0-4.348,17.918,4.965,25.215
			c0,0-12.122,11.529,2.975,29.849c15.096,18.32,32.405,28.747,32.405,28.747l45.668,46.711l60.057,2.502l40.038-11.678
			l-5.422-82.787l9.936-18.559l-2.428-13.346c0,0,10.965-7.299,9.444-17.1C368.015,331.255,368.015,331.255,368.015,331.255z"/>
		
			<path clip-path="url(#SVGID_2_)" fill="none" stroke="#FFFFFF" stroke-width="2" stroke-linecap="round" stroke-linejoin="round" d="
			M355.503,305.606c0,0,26.799,34.165,6.326,51.299"/>
		<path clip-path="url(#SVGID_2_)" fill="#9F605A" d="M172.008,351.378c-8.328-12.231,5.227-35.352,15.633-71.546
			c10.563-36.738,3.215-93.502-4.527-133.668c-4.204-21.807-8.524-38.721-10.158-44.88c-0.436-1.644-0.681-2.522-0.681-2.522
			c0-36.807,29.838-66.645,66.645-66.645s66.645,29.838,66.645,66.645c0,0,6.386,115.136,34.408,163.554
			c18.385,31.766,41.289,53.801,28.152,68.815"/>
		
			<path clip-path="url(#SVGID_2_)" fill="none" stroke="#FFFFFF" stroke-width="2" stroke-linecap="round" stroke-linejoin="round" d="
			M172.236,102.287c0.242-1.993,0.039-3.524,0.039-3.524c0-36.807,29.838-66.645,66.645-66.645s66.645,29.838,66.645,66.645
			c0,0,6.386,115.136,34.408,163.554c18.385,31.766,41.289,53.801,28.152,68.815"/>
		
			<path clip-path="url(#SVGID_2_)" fill="none" stroke="#FFFFFF" stroke-width="2" stroke-linecap="round" stroke-linejoin="round" d="
			M172.008,351.378c-8.328-12.231,5.227-35.352,15.633-71.546c10.222-35.553,3.671-89.863-3.78-129.732
			c-0.248-1.329-1.299-2.866-1.549-4.162"/>
		
			<path clip-path="url(#SVGID_2_)" fill="none" stroke="#FFFFFF" stroke-width="2" stroke-linecap="round" stroke-linejoin="round" d="
			M300.033,225.113c0,0,5.839,26.157,20.436,44.567c14.597,18.41,35.45,44.268,25.441,61.576"/>
		
			<path clip-path="url(#SVGID_2_)" fill="none" stroke="#FFFFFF" stroke-width="2" stroke-linecap="round" stroke-linejoin="round" d="
			M206.933,288.504c0,0-1.572,20.855-14.71,34.618c-13.137,13.763-30.811,37.536-15.718,51.924"/>
		
			<path clip-path="url(#SVGID_2_)" fill="none" stroke="#FFFFFF" stroke-width="2" stroke-linecap="round" stroke-linejoin="round" d="
			M280.014,191.748c0,0-4.588,41.289,4.588,67.564s22.521,59.223,4.171,70.067c-18.351,10.844-26.692,27.526-12.512,38.787"/>
		
			<path clip-path="url(#SVGID_2_)" fill="none" stroke="#FFFFFF" stroke-width="2" stroke-linecap="round" stroke-linejoin="round" stroke-miterlimit="10" d="
			M309.153,141.442c-3.999,14.692-11.043,26.481-25.626,32.65"/>
		
			<path clip-path="url(#SVGID_2_)" fill="none" stroke="#FFFFFF" stroke-width="2" stroke-linecap="round" stroke-linejoin="round" stroke-miterlimit="10" d="
			M244.412,301.334c20.667-26.667,12.562-91.442,13.498-107.667s-15.597-17.61-15.597-17.61c-3.252,0-6.454-0.217-9.591-0.638
			c-34.936-4.686-61.879-34.612-61.879-70.832c0-39.472,31.998-71.47,71.47-71.47c5.372,0,10.606,0.593,15.64,1.717"/>
		
			<path clip-path="url(#SVGID_2_)" fill="none" stroke="#FFFFFF" stroke-width="2" stroke-linecap="round" stroke-linejoin="round" stroke-miterlimit="10" d="
			M243.313,187.852c0,0,6.256,37.254-11.077,74.587"/>
		
			<path clip-path="url(#SVGID_2_)" fill="none" stroke="#FFFFFF" stroke-width="2" stroke-linecap="round" stroke-linejoin="round" stroke-miterlimit="10" d="
			M232.236,62.25c0,0-33.989,13.695-19.994,57.39"/>
		<rect x="33.215" y="16.667" clip-path="url(#SVGID_2_)" fill="none" width="418" height="340.764"/>
		<g clip-path="url(#SVGID_2_)">
			<defs>
				<path id="SVGID_3_" d="M388.121,325.683c-2.415-20.378-33.917-40.481-33.917-40.481l-151.576-15.522
					c0,0-36.054,30.922-79.012,38.429c-42.957,7.507-51.299,64.228-51.299,64.228l200.399,140.967l82.787-21.27l58.806-72.569
					L388.121,325.683z"/>
			</defs>
			<clipPath id="SVGID_4_">
				<use xlink:href="#SVGID_3_"  overflow="visible"/>
			</clipPath>
			<path clip-path="url(#SVGID_4_)" fill="none" stroke="#E72B66" stroke-width="3" d="M133.642,305.594
				c0,0,13.845,10.436,13.845,39.436v12.401"/>
		</g>
	</g>
</g>
</svg>
