<?xml version="1.0" encoding="utf-8"?>
<!-- Generator: Adobe Illustrator 18.0.0, SVG Export Plug-In . SVG Version: 6.00 Build 0)  -->
<!DOCTYPE svg PUBLIC "-//W3C//DTD SVG 1.1//EN" "http://www.w3.org/Graphics/SVG/1.1/DTD/svg11.dtd">
<svg version="1.1" id="Layer_1" xmlns="http://www.w3.org/2000/svg" xmlns:xlink="http://www.w3.org/1999/xlink" x="0px" y="0px"
	 viewBox="0 0 352.478 342.355" enable-background="new 0 0 352.478 342.355" xml:space="preserve">
<g>
	
		<polyline fill="#77C5BB" stroke="#FFFFFF" stroke-width="2" stroke-linecap="round" stroke-linejoin="round" stroke-miterlimit="10" points="
		44.466,256.285 44.466,55.138 139.576,55.138 139.576,256.285 	"/>
</g>
<line fill="none" stroke="#FFFFFF" stroke-width="2" stroke-miterlimit="10" x1="44.466" y1="68.929" x2="78.645" y2="68.929"/>
<line fill="none" stroke="#FFFFFF" stroke-width="2" stroke-miterlimit="10" x1="44.466" y1="74.807" x2="72.205" y2="74.807"/>
<line fill="none" stroke="#FFFFFF" stroke-width="2" stroke-miterlimit="10" x1="44.466" y1="240.296" x2="78.645" y2="240.296"/>
<line fill="none" stroke="#FFFFFF" stroke-width="2" stroke-miterlimit="10" x1="44.466" y1="246.174" x2="72.205" y2="246.174"/>
<line fill="none" stroke="#FFFFFF" stroke-width="2" stroke-miterlimit="10" x1="139.576" y1="163.882" x2="105.398" y2="163.882"/>
<line fill="none" stroke="#FFFFFF" stroke-width="2" stroke-miterlimit="10" x1="139.576" y1="169.76" x2="111.838" y2="169.76"/>
<line fill="none" stroke="#FFFFFF" stroke-width="2" stroke-miterlimit="10" x1="44.466" y1="122.736" x2="139.576" y2="122.736"/>
<line fill="none" stroke="#FFFFFF" stroke-width="2" stroke-miterlimit="10" x1="44.466" y1="110.527" x2="139.576" y2="110.527"/>
<line fill="none" stroke="#FFFFFF" stroke-width="2" stroke-miterlimit="10" x1="44.466" y1="217.689" x2="139.576" y2="217.689"/>
<line fill="none" stroke="#FFFFFF" stroke-width="2" stroke-miterlimit="10" x1="44.466" y1="221.306" x2="139.576" y2="221.306"/>
<line fill="none" stroke="#FFFFFF" stroke-width="2" stroke-miterlimit="10" x1="44.466" y1="188.121" x2="139.576" y2="188.121"/>
<path fill="#222222" stroke="#FFFFFF" stroke-width="2" d="M28.811,55.138c-1.989,0-4.686-1.227-5.993-2.728l-7.457-8.561
	c-1.307-1.5-0.748-2.728,1.242-2.728H167.44c1.989,0,2.548,1.227,1.242,2.728l-7.457,8.561c-1.307,1.5-4.004,2.728-5.993,2.728
	H28.811z"/>
<path fill="#222222" stroke="#FFFFFF" stroke-width="2" d="M28.811,256.285c-1.989,0-4.686,1.227-5.993,2.728l-7.457,8.561
	c-1.307,1.5-0.748,2.728,1.242,2.728H167.44c1.989,0,2.548-1.227,1.242-2.728l-7.457-8.561c-1.307-1.5-4.004-2.728-5.993-2.728
	H28.811z"/>
<line fill="none" stroke="#FFFFFF" stroke-width="2" stroke-miterlimit="10" x1="44.466" y1="151.372" x2="139.576" y2="151.372"/>
<line fill="none" stroke="#FFFFFF" stroke-width="2" stroke-miterlimit="10" x1="44.466" y1="126.353" x2="139.576" y2="126.353"/>
<g>
	
		<polyline fill="#E72B66" stroke="#FFFFFF" stroke-width="2" stroke-linecap="round" stroke-linejoin="round" stroke-miterlimit="10" points="
		125.088,254.802 125.088,32.371 230.262,32.371 230.262,254.802 	"/>
</g>
<line fill="none" stroke="#FFFFFF" stroke-width="2" stroke-miterlimit="10" x1="125.088" y1="54.621" x2="162.883" y2="54.621"/>
<line fill="none" stroke="#FFFFFF" stroke-width="2" stroke-miterlimit="10" x1="125.088" y1="61.121" x2="155.762" y2="61.121"/>
<line fill="none" stroke="#FFFFFF" stroke-width="2" stroke-miterlimit="10" x1="125.088" y1="228.121" x2="162.883" y2="228.121"/>
<line fill="none" stroke="#FFFFFF" stroke-width="2" stroke-miterlimit="10" x1="125.088" y1="234.621" x2="155.762" y2="234.621"/>
<line fill="none" stroke="#FFFFFF" stroke-width="2" stroke-miterlimit="10" x1="230.262" y1="164.621" x2="192.467" y2="164.621"/>
<line fill="none" stroke="#FFFFFF" stroke-width="2" stroke-miterlimit="10" x1="230.262" y1="171.121" x2="199.588" y2="171.121"/>
<line fill="none" stroke="#FFFFFF" stroke-width="2" stroke-miterlimit="10" x1="125.088" y1="98.121" x2="230.262" y2="98.121"/>
<line fill="none" stroke="#FFFFFF" stroke-width="2" stroke-miterlimit="10" x1="125.088" y1="84.621" x2="230.262" y2="84.621"/>
<line fill="none" stroke="#FFFFFF" stroke-width="2" stroke-miterlimit="10" x1="125.088" y1="204.121" x2="230.262" y2="204.121"/>
<line fill="none" stroke="#FFFFFF" stroke-width="2" stroke-miterlimit="10" x1="125.088" y1="208.121" x2="230.262" y2="208.121"/>
<line fill="none" stroke="#FFFFFF" stroke-width="2" stroke-miterlimit="10" x1="125.088" y1="197.121" x2="230.262" y2="197.121"/>
<path fill="#222222" stroke="#FFFFFF" stroke-width="2" d="M107.777,32.371c-2.2,0-5.182-1.357-6.627-3.016l-8.246-9.467
	c-1.445-1.659-0.827-3.016,1.373-3.016h166.797c2.2,0,2.818,1.357,1.373,3.016l-8.246,9.467c-1.445,1.659-4.427,3.016-6.627,3.016
	H107.777z"/>
<path fill="#222222" stroke="#FFFFFF" stroke-width="2" d="M107.777,254.802c-2.2,0-5.182,1.357-6.627,3.016l-8.246,9.467
	c-1.445,1.659-0.827,3.016,1.373,3.016h166.797c2.2,0,2.818-1.357,1.373-3.016l-8.246-9.467c-1.445-1.659-4.427-3.016-6.627-3.016
	H107.777z"/>
<path fill="none" stroke="#DC1756" stroke-width="2" stroke-miterlimit="10" d="M124.088,239.726c-1.306,0-2.364,1.059-2.364,2.364
	c0,1.306,1.059,2.364,2.364,2.364h107.377c1.306,0,2.364-1.059,2.364-2.364c0-1.306-1.059-2.364-2.364-2.364"/>
<path fill="none" stroke="#DC1756" stroke-width="2" stroke-linecap="round" stroke-linejoin="round" stroke-miterlimit="10" d="
	M124.088,244.455c-2.439,0-4.417,1.977-4.417,4.417s1.977,4.417,4.417,4.417l46.21-0.167c0,0,67.416,13.866,138.636,17.379
	c0,0,9.71,0.621,10.71,7.621s-6,34,19,49"/>
<line fill="none" stroke="#FFFFFF" stroke-width="2" stroke-miterlimit="10" x1="125.088" y1="102.121" x2="230.262" y2="102.121"/>
<g>
	<path fill="#9F605A" stroke="#FFFFFF" stroke-width="2" d="M53.683,260.979c0,0,5.816-61.753,7.66-66.361
		c1.843-4.608,20.738-6.452,20.738-6.452h4.874c0,0,18.894,1.843,20.738,6.452c1.843,4.608,7.66,66.361,7.66,66.361"/>
	<path fill="#8F504B" stroke="#FFFFFF" stroke-width="2" stroke-linecap="round" stroke-linejoin="round" d="M87.436,196.537
		c0,1.612-1.307,2.919-2.919,2.919s-2.919-1.307-2.919-2.919c0-1.612,1.307-2.919,2.919-2.919"/>
	<path fill="#8F504B" stroke="#FFFFFF" stroke-width="2" stroke-linecap="round" stroke-linejoin="round" d="M87.436,209.901
		c0,1.612-1.307,2.919-2.919,2.919s-2.919-1.307-2.919-2.919c0-1.612,1.307-2.919,2.919-2.919"/>
	<path fill="#8F504B" stroke="#FFFFFF" stroke-width="2" stroke-linecap="round" stroke-linejoin="round" d="M87.436,223.265
		c0,1.612-1.307,2.919-2.919,2.919s-2.919-1.307-2.919-2.919c0-1.612,1.307-2.919,2.919-2.919"/>
	<path fill="#8F504B" stroke="#FFFFFF" stroke-width="2" stroke-linecap="round" stroke-linejoin="round" d="M87.436,236.63
		c0,1.612-1.307,2.919-2.919,2.919s-2.919-1.307-2.919-2.919c0-1.612,1.307-2.919,2.919-2.919"/>
	<path fill="#8F504B" stroke="#FFFFFF" stroke-width="2" stroke-linecap="round" stroke-linejoin="round" d="M94.85,198.38
		c0,1.612,1.307,2.919,2.919,2.919s2.919-1.307,2.919-2.919c0-1.612-1.307-2.919-2.919-2.919"/>
	<path fill="#8F504B" stroke="#FFFFFF" stroke-width="2" stroke-linecap="round" stroke-linejoin="round" d="M96.518,210.944
		c0,1.612,1.307,2.919,2.919,2.919c1.612,0,2.919-1.307,2.919-2.919c0-1.612-1.307-2.919-2.919-2.919"/>
	<path fill="#8F504B" stroke="#FFFFFF" stroke-width="2" stroke-linecap="round" stroke-linejoin="round" d="M97.768,224.557
		c0,1.612,1.307,2.919,2.919,2.919s2.919-1.307,2.919-2.919c0-1.612-1.307-2.919-2.919-2.919"/>
	<path fill="#8F504B" stroke="#FFFFFF" stroke-width="2" stroke-linecap="round" stroke-linejoin="round" d="M99.354,238.167
		c0,1.612,1.307,2.919,2.919,2.919s2.919-1.307,2.919-2.919c0-1.612-1.307-2.919-2.919-2.919"/>
	<path fill="#8F504B" stroke="#FFFFFF" stroke-width="2" stroke-linecap="round" stroke-linejoin="round" d="M73.785,198.38
		c0,1.612-1.307,2.919-2.919,2.919s-2.919-1.307-2.919-2.919c0-1.612,1.307-2.919,2.919-2.919"/>
	<path fill="#8F504B" stroke="#FFFFFF" stroke-width="2" stroke-linecap="round" stroke-linejoin="round" d="M72.556,210.944
		c0,1.612-1.307,2.919-2.919,2.919s-2.919-1.307-2.919-2.919c0-1.612,1.307-2.919,2.919-2.919"/>
	<path fill="#8F504B" stroke="#FFFFFF" stroke-width="2" stroke-linecap="round" stroke-linejoin="round" d="M71.425,224.557
		c0,1.612-1.307,2.919-2.919,2.919s-2.919-1.307-2.919-2.919c0-1.612,1.307-2.919,2.919-2.919"/>
	<path fill="#8F504B" stroke="#FFFFFF" stroke-width="2" stroke-linecap="round" stroke-linejoin="round" d="M69.791,238.167
		c0,1.612-1.307,2.919-2.919,2.919s-2.919-1.307-2.919-2.919c0-1.612,1.307-2.919,2.919-2.919"/>
	
		<line fill="#8F504B" stroke="#FFFFFF" stroke-width="2" stroke-linecap="round" stroke-linejoin="round" x1="55.086" y1="248.304" x2="114.105" y2="248.304"/>
	<path fill="#9F605A" stroke="#FFFFFF" stroke-width="2" d="M108.348,259.979h6.277c2.631,0,4.783,2.152,4.783,4.783l0,0
		c0,2.631-2.152,4.783-4.783,4.783H53.683c-2.631,0-4.783-2.152-4.783-4.783l0,0c0-2.631,2.152-4.783,4.783-4.783h6.277"/>
</g>
<path fill="#222222" d="M235.74,43.63c-1.667-0.371-3.537,1.656-4.177,4.528l-33.731,157.666c-0.356,1.599,0.107,3.063,1.035,3.27
	c0.928,0.207,1.969-0.922,2.326-2.521l36.406-157.069C238.239,46.631,237.406,44.002,235.74,43.63z M234.045,51.233
	c-0.704-0.157-1.055-1.267-0.785-2.48c0.27-1.213,1.06-2.069,1.764-1.912c0.704,0.157,1.055,1.267,0.785,2.48
	C235.539,50.534,234.749,51.39,234.045,51.233z"/>
<line fill="none" stroke="#FFFFFF" stroke-width="2" stroke-miterlimit="10" x1="230.262" y1="129.621" x2="192.467" y2="129.621"/>
<line fill="none" stroke="#FFFFFF" stroke-width="2" stroke-miterlimit="10" x1="125.088" y1="123.622" x2="230.262" y2="123.622"/>
</svg>
