<?xml version="1.0" encoding="utf-8"?>
<!-- Generator: Adobe Illustrator 18.0.0, SVG Export Plug-In . SVG Version: 6.00 Build 0)  -->
<!DOCTYPE svg PUBLIC "-//W3C//DTD SVG 1.1//EN" "http://www.w3.org/Graphics/SVG/1.1/DTD/svg11.dtd">
<svg version="1.1" id="Layer_1" xmlns="http://www.w3.org/2000/svg" xmlns:xlink="http://www.w3.org/1999/xlink" x="0px" y="0px"
	 viewBox="0 0 274 309" enable-background="new 0 0 274 309" xml:space="preserve">
<g>
	<defs>
		<path id="SVGID_1_" d="M191.924,16.516c66.9,30.599,96.328,109.638,65.729,176.538c-25.511,55.775-84.689,85.495-142.433,76.109
			l0,0c-6.506,0.225-35.395,38.359-48.216,34.896c0,0,25.618-23.929,17.402-43.825c-1.1-0.468-2.197-0.95-3.291-1.45
			c-66.9-30.599-96.328-109.638-65.729-176.538C45.985,15.344,125.024-14.084,191.924,16.516z"/>
	</defs>
	<clipPath id="SVGID_2_">
		<use xlink:href="#SVGID_1_"  overflow="visible"/>
	</clipPath>
	<path clip-path="url(#SVGID_2_)" fill="#2D2D2D" d="M225.986-28.278c97.162,44.44,139.902,159.232,95.461,256.395
		c-37.05,81.004-122.998,124.168-206.863,110.537l0,0c-9.448,0.327-51.406,55.711-70.027,50.68c0,0,37.206-34.753,25.274-63.649
		c-1.598-0.679-3.191-1.38-4.779-2.106c-97.162-44.44-139.902-159.233-95.461-256.395C14.032-29.979,128.824-72.718,225.986-28.278z
		"/>
	<path clip-path="url(#SVGID_2_)" fill="#9E5F59" d="M27.432,203.094h211.429c13.354,0,24.179,10.825,24.179,24.179
		c0,13.354-10.825,24.179-24.179,24.179H27.432"/>
	<path clip-path="url(#SVGID_2_)" fill="#FFFFFF" d="M239.756,241.84c8.045,0,14.567-6.522,14.567-14.567
		c0-8.045-6.522-14.567-14.567-14.567"/>
	<rect x="31.91" y="212.705" clip-path="url(#SVGID_2_)" fill="#FFFFFF" width="204.265" height="29.134"/>
	
		<line clip-path="url(#SVGID_2_)" fill="none" stroke="#EC2565" stroke-width="2" stroke-miterlimit="10" x1="230.801" y1="219.213" x2="31.91" y2="219.213"/>
	
		<line clip-path="url(#SVGID_2_)" fill="none" stroke="#EC2565" stroke-width="2" stroke-miterlimit="10" x1="230.801" y1="227.272" x2="31.91" y2="227.272"/>
	
		<line clip-path="url(#SVGID_2_)" fill="none" stroke="#EC2565" stroke-width="2" stroke-miterlimit="10" x1="230.801" y1="235.332" x2="31.91" y2="235.332"/>
	<circle clip-path="url(#SVGID_2_)" fill="#9E5F59" cx="27.542" cy="246.645" r="4.806"/>
	<circle clip-path="url(#SVGID_2_)" fill="#9E5F59" cx="27.542" cy="207.899" r="4.806"/>
	<path clip-path="url(#SVGID_2_)" fill="#EC2565" d="M13.999,154.736h211.429c13.354,0,24.179,10.825,24.179,24.179
		s-10.825,24.179-24.179,24.179H13.999"/>
	<path clip-path="url(#SVGID_2_)" fill="#FFFFFF" d="M226.324,193.482c8.045,0,14.567-6.522,14.567-14.567
		s-6.522-14.567-14.567-14.567"/>
	<rect x="18.477" y="164.347" clip-path="url(#SVGID_2_)" fill="#FFFFFF" width="204.265" height="29.134"/>
	
		<line clip-path="url(#SVGID_2_)" fill="none" stroke="#9E5F59" stroke-width="2" stroke-miterlimit="10" x1="217.368" y1="170.855" x2="18.477" y2="170.855"/>
	
		<line clip-path="url(#SVGID_2_)" fill="none" stroke="#9E5F59" stroke-width="2" stroke-miterlimit="10" x1="217.368" y1="178.915" x2="18.477" y2="178.915"/>
	
		<line clip-path="url(#SVGID_2_)" fill="none" stroke="#9E5F59" stroke-width="2" stroke-miterlimit="10" x1="217.368" y1="186.974" x2="18.477" y2="186.974"/>
	<circle clip-path="url(#SVGID_2_)" fill="#EC2565" cx="13.999" cy="198.288" r="4.806"/>
	<circle clip-path="url(#SVGID_2_)" fill="#EC2565" cx="13.999" cy="159.542" r="4.806"/>
	<rect x="13.104" y="164.347" clip-path="url(#SVGID_2_)" fill="#2D2D2D" width="5.373" height="29.134"/>
	<path clip-path="url(#SVGID_2_)" fill="#9E5F59" d="M249.443,106.378H38.014c-13.354,0-24.179,10.825-24.179,24.179
		s10.825,24.179,24.179,24.179h211.429"/>
	<path clip-path="url(#SVGID_2_)" fill="#FFFFFF" d="M37.118,145.124c-8.045,0-14.567-6.522-14.567-14.567
		s6.522-14.567,14.567-14.567"/>
	<rect x="40.701" y="115.99" clip-path="url(#SVGID_2_)" fill="#FFFFFF" width="204.265" height="29.134"/>
	
		<line clip-path="url(#SVGID_2_)" fill="none" stroke="#EC2565" stroke-width="2" stroke-miterlimit="10" x1="46.074" y1="122.497" x2="244.965" y2="122.497"/>
	
		<line clip-path="url(#SVGID_2_)" fill="none" stroke="#EC2565" stroke-width="2" stroke-miterlimit="10" x1="46.074" y1="130.557" x2="244.965" y2="130.557"/>
	
		<line clip-path="url(#SVGID_2_)" fill="none" stroke="#EC2565" stroke-width="2" stroke-miterlimit="10" x1="46.074" y1="138.616" x2="244.965" y2="138.616"/>
	<circle clip-path="url(#SVGID_2_)" fill="#9E5F59" cx="249.443" cy="149.93" r="4.806"/>
	<circle clip-path="url(#SVGID_2_)" fill="#9E5F59" cx="249.443" cy="111.184" r="4.806"/>
	<rect x="244.965" y="115.99" clip-path="url(#SVGID_2_)" fill="#2D2D2D" width="5.373" height="29.134"/>
	<path clip-path="url(#SVGID_2_)" fill="#9E5F59" d="M260.92,58.02H49.492c-13.354,0-24.179,10.825-24.179,24.179
		s10.825,24.179,24.179,24.179H260.92"/>
	<path clip-path="url(#SVGID_2_)" fill="#FFFFFF" d="M48.596,96.766c-8.045,0-14.567-6.522-14.567-14.567
		s6.522-14.567,14.567-14.567"/>
	<rect x="52.178" y="67.632" clip-path="url(#SVGID_2_)" fill="#FFFFFF" width="204.265" height="29.134"/>
	
		<line clip-path="url(#SVGID_2_)" fill="none" stroke="#EC2565" stroke-width="2" stroke-miterlimit="10" x1="57.551" y1="74.139" x2="256.443" y2="74.139"/>
	
		<line clip-path="url(#SVGID_2_)" fill="none" stroke="#EC2565" stroke-width="2" stroke-miterlimit="10" x1="57.551" y1="90.259" x2="256.443" y2="90.259"/>
	<circle clip-path="url(#SVGID_2_)" fill="#9E5F59" cx="260.92" cy="101.572" r="4.806"/>
	<circle clip-path="url(#SVGID_2_)" fill="#9E5F59" cx="260.92" cy="62.826" r="4.806"/>
	
		<line clip-path="url(#SVGID_2_)" fill="none" stroke="#EC2565" stroke-width="2" stroke-miterlimit="10" x1="57.551" y1="82.199" x2="256.443" y2="82.199"/>
	<polygon clip-path="url(#SVGID_2_)" fill="#9EE1D4" points="73.003,129.589 80.705,123.637 89.078,129.589 89.078,81.028 
		73.003,81.028 	"/>
	<rect x="256.443" y="67.632" clip-path="url(#SVGID_2_)" fill="#2D2D2D" width="5.373" height="29.134"/>
	<rect x="26.536" y="212.705" clip-path="url(#SVGID_2_)" fill="#2D2D2D" width="5.373" height="29.134"/>
</g>
</svg>
