<?xml version="1.0" encoding="utf-8"?>
<!-- Generator: Adobe Illustrator 18.0.0, SVG Export Plug-In . SVG Version: 6.00 Build 0)  -->
<!DOCTYPE svg PUBLIC "-//W3C//DTD SVG 1.1//EN" "http://www.w3.org/Graphics/SVG/1.1/DTD/svg11.dtd">
<svg version="1.1" id="Layer_1" xmlns="http://www.w3.org/2000/svg" xmlns:xlink="http://www.w3.org/1999/xlink" x="0px" y="0px"
	 viewBox="0 0 243.169 271.486" enable-background="new 0 0 243.169 271.486" xml:space="preserve">
<g>
	<path fill="#EC2565" d="M169.156,16.757c57.136,26.133,82.27,93.636,56.136,150.773c-21.787,47.635-72.329,73.017-121.646,65.001
		l0,0c-5.556,0.192-30.229,32.761-41.179,29.803c0,0,21.879-20.436,14.863-37.429c-0.939-0.4-1.877-0.811-2.811-1.239
		C17.382,197.534-7.751,130.03,18.383,72.894C44.516,15.757,112.019-9.376,169.156,16.757z"/>
	<g>
		<defs>
			<path id="SVGID_1_" d="M169.156,16.757c57.136,26.133,82.27,93.636,56.136,150.773c-21.787,47.635-72.329,73.017-121.646,65.001
				l0,0c-5.556,0.192-30.229,32.761-41.179,29.803c0,0,21.879-20.436,14.863-37.429c-0.939-0.4-1.877-0.811-2.811-1.239
				C17.382,197.534-7.751,130.03,18.383,72.894C44.516,15.757,112.019-9.376,169.156,16.757z"/>
		</defs>
		<clipPath id="SVGID_2_">
			<use xlink:href="#SVGID_1_"  overflow="visible"/>
		</clipPath>
		<g clip-path="url(#SVGID_2_)">
			<g>
				
					<circle fill="#FFFFFF" stroke="#EC2565" stroke-width="2" stroke-linecap="round" stroke-linejoin="round" cx="141.636" cy="175.705" r="96"/>
				<path fill="none" stroke="#EC2565" stroke-width="2" stroke-linecap="round" stroke-linejoin="round" d="M68.636,175.705
					c0-40.317,32.683-73,73-73s73,32.683,73,73s-32.683,73-73,73c-30.924,0-57.358-19.229-67.995-46.383"/>
				
					<circle fill="none" stroke="#EC2565" stroke-width="2" stroke-linecap="round" stroke-linejoin="round" cx="141.636" cy="175.705" r="63"/>
			</g>
			
				<circle fill="#FFFFFF" stroke="#96DED1" stroke-width="2" stroke-linecap="round" stroke-linejoin="round" stroke-miterlimit="10" cx="90.136" cy="208.127" r="30.464"/>
			
				<path fill="#009578" stroke="#FFFFFF" stroke-width="2" stroke-linecap="round" stroke-linejoin="round" stroke-miterlimit="10" d="
				M90.136,226.555c-10.178,0-18.428-8.251-18.428-18.428"/>
			
				<circle fill="#FFFFFF" stroke="#96DED1" stroke-width="2" stroke-linecap="round" stroke-linejoin="round" stroke-miterlimit="10" cx="83.636" cy="254.705" r="30.464"/>
			<g>
				
					<circle fill="#FFFFFF" stroke="#96DED1" stroke-width="2" stroke-linecap="round" stroke-linejoin="round" stroke-miterlimit="10" cx="128.748" cy="230.815" r="30.464"/>
				
					<path fill="#FFFFFF" stroke="#96DED1" stroke-width="2" stroke-linecap="round" stroke-linejoin="round" stroke-miterlimit="10" d="
					M110.32,230.815c0-10.178,8.251-18.428,18.428-18.428"/>
			</g>
			<g>
				
					<circle fill="#FFFFFF" stroke="#96DED1" stroke-width="2" stroke-linecap="round" stroke-linejoin="round" stroke-miterlimit="10" cx="180.076" cy="230.815" r="30.464"/>
				
					<path fill="#FFFFFF" stroke="#96DED1" stroke-width="2" stroke-linecap="round" stroke-linejoin="round" stroke-miterlimit="10" d="
					M161.648,230.815c0-10.178,8.251-18.428,18.428-18.428"/>
			</g>
			<g>
				
					<circle fill="#FFFFFF" stroke="#96DED1" stroke-width="2" stroke-linecap="round" stroke-linejoin="round" stroke-miterlimit="10" cx="60.315" cy="212.387" r="30.464"/>
				
					<path fill="#FFFFFF" stroke="#96DED1" stroke-width="2" stroke-linecap="round" stroke-linejoin="round" stroke-miterlimit="10" d="
					M41.887,212.387c0-10.178,8.251-18.428,18.428-18.428"/>
			</g>
		</g>
	</g>
</g>
</svg>
