<?xml version="1.0" encoding="utf-8"?>
<!-- Generator: Adobe Illustrator 18.0.0, SVG Export Plug-In . SVG Version: 6.00 Build 0)  -->
<!DOCTYPE svg PUBLIC "-//W3C//DTD SVG 1.1//EN" "http://www.w3.org/Graphics/SVG/1.1/DTD/svg11.dtd">
<svg version="1.1" id="Layer_1" xmlns="http://www.w3.org/2000/svg" xmlns:xlink="http://www.w3.org/1999/xlink" x="0px" y="0px"
	 viewBox="0 0 246.914 276.543" enable-background="new 0 0 246.914 276.543" xml:space="preserve">
<g>
	<path fill="#E72B66" d="M168.855,20.028c57.136,26.133,82.27,93.636,56.136,150.773c-21.787,47.635-72.329,73.017-121.646,65.001
		l0,0c-5.556,0.192-30.229,32.761-41.179,29.803c0,0,21.879-20.436,14.863-37.429c-0.939-0.4-1.877-0.811-2.811-1.239
		C17.082,200.804-8.051,133.3,18.082,76.164C44.216,19.027,111.719-6.106,168.855,20.028z"/>
	<g>
		<defs>
			<path id="SVGID_1_" d="M168.855,20.028c57.136,26.133,82.27,93.636,56.136,150.773c-21.787,47.635-72.329,73.017-121.646,65.001
				l0,0c-5.556,0.192-30.229,32.761-41.179,29.803c0,0,21.879-20.436,14.863-37.429c-0.939-0.4-1.877-0.811-2.811-1.239
				C17.082,200.804-8.051,133.3,18.082,76.164C44.216,19.027,111.719-6.106,168.855,20.028z"/>
		</defs>
		<clipPath id="SVGID_2_">
			<use xlink:href="#SVGID_1_"  overflow="visible"/>
		</clipPath>
		<g clip-path="url(#SVGID_2_)">
			<g>
				
					<circle fill="#FFFFFF" stroke="#E72B66" stroke-width="2" stroke-linecap="round" stroke-linejoin="round" cx="141.336" cy="178.975" r="96"/>
				<path fill="none" stroke="#E72B66" stroke-width="2" stroke-linecap="round" stroke-linejoin="round" d="M68.336,178.975
					c0-40.317,32.683-73,73-73s73,32.683,73,73s-32.683,73-73,73c-30.924,0-57.358-19.229-67.995-46.383"/>
				
					<circle fill="none" stroke="#E72B66" stroke-width="2" stroke-linecap="round" stroke-linejoin="round" cx="141.336" cy="178.975" r="63"/>
			</g>
			
				<circle fill="#FFFFFF" stroke="#9BD2CA" stroke-width="2" stroke-linecap="round" stroke-linejoin="round" stroke-miterlimit="10" cx="89.836" cy="211.398" r="30.464"/>
			
				<path fill="#009578" stroke="#FFFFFF" stroke-width="2" stroke-linecap="round" stroke-linejoin="round" stroke-miterlimit="10" d="
				M89.836,229.826c-10.178,0-18.428-8.251-18.428-18.428"/>
			
				<circle fill="#FFFFFF" stroke="#9BD2CA" stroke-width="2" stroke-linecap="round" stroke-linejoin="round" stroke-miterlimit="10" cx="83.336" cy="257.975" r="30.464"/>
			<g>
				
					<circle fill="#FFFFFF" stroke="#9BD2CA" stroke-width="2" stroke-linecap="round" stroke-linejoin="round" stroke-miterlimit="10" cx="128.448" cy="234.085" r="30.464"/>
				
					<path fill="#FFFFFF" stroke="#9BD2CA" stroke-width="2" stroke-linecap="round" stroke-linejoin="round" stroke-miterlimit="10" d="
					M110.019,234.085c0-10.178,8.251-18.428,18.428-18.428"/>
			</g>
			<g>
				
					<circle fill="#FFFFFF" stroke="#9BD2CA" stroke-width="2" stroke-linecap="round" stroke-linejoin="round" stroke-miterlimit="10" cx="179.775" cy="234.085" r="30.464"/>
				
					<path fill="#FFFFFF" stroke="#9BD2CA" stroke-width="2" stroke-linecap="round" stroke-linejoin="round" stroke-miterlimit="10" d="
					M161.347,234.085c0-10.178,8.251-18.428,18.428-18.428"/>
			</g>
			<g>
				
					<circle fill="#FFFFFF" stroke="#9BD2CA" stroke-width="2" stroke-linecap="round" stroke-linejoin="round" stroke-miterlimit="10" cx="60.014" cy="215.657" r="30.464"/>
				
					<path fill="#FFFFFF" stroke="#9BD2CA" stroke-width="2" stroke-linecap="round" stroke-linejoin="round" stroke-miterlimit="10" d="
					M41.586,215.657c0-10.178,8.251-18.428,18.428-18.428"/>
			</g>
		</g>
	</g>
</g>
</svg>
