<?xml version="1.0" encoding="utf-8"?>
<!-- Generator: Adobe Illustrator 18.0.0, SVG Export Plug-In . SVG Version: 6.00 Build 0)  -->
<!DOCTYPE svg PUBLIC "-//W3C//DTD SVG 1.1//EN" "http://www.w3.org/Graphics/SVG/1.1/DTD/svg11.dtd">
<svg version="1.1" id="Layer_1" xmlns="http://www.w3.org/2000/svg" xmlns:xlink="http://www.w3.org/1999/xlink" x="0px" y="0px"
	 viewBox="0 0 262.487 292.485" enable-background="new 0 0 262.487 292.485" xml:space="preserve">
<g>
	<defs>
		<path id="SVGID_1_" d="M80.626,17.937C18.381,46.407-8.999,119.946,19.471,182.191c23.735,51.894,78.796,79.545,132.522,70.813
			l0,0c6.053,0.21,32.932,35.69,44.861,32.467c0,0-23.835-22.264-16.191-40.775c1.023-0.435,2.044-0.884,3.062-1.349
			c62.245-28.47,89.625-102.009,61.155-164.253C216.41,16.848,142.871-10.532,80.626,17.937z"/>
	</defs>
	<clipPath id="SVGID_2_">
		<use xlink:href="#SVGID_1_"  overflow="visible"/>
	</clipPath>
	<rect x="-20.556" y="-29.399" clip-path="url(#SVGID_2_)" fill="#FFFFFF" width="447.688" height="401.064"/>
	<g clip-path="url(#SVGID_2_)">
		<path fill="none" stroke="#DC1555" stroke-width="3" stroke-miterlimit="10" d="M156.046,66.596c0,0,46.455,19.729,51.398,57.289
			c4.942,37.56,24.216,93.899,105.76,131.953s121.081,31.135,121.081,31.135"/>
		<path fill="#6BD3C2" d="M152.14,47.883c-4.266-0.951-9.053,4.238-10.691,11.59L55.111,463.031
			c-0.912,4.093,0.274,7.841,2.65,8.371c2.375,0.529,5.041-2.36,5.953-6.453l93.185-402.032
			C158.537,55.564,156.406,48.834,152.14,47.883z M147.804,67.343c-1.802-0.402-2.701-3.244-2.01-6.348
			c0.692-3.105,2.713-5.296,4.515-4.894c1.802,0.402,2.701,3.244,2.01,6.348C151.627,65.553,149.605,67.744,147.804,67.343z"/>
		<path fill="none" stroke="#DC1555" stroke-width="3" stroke-miterlimit="10" d="M-11.49-146.446
			c0,0,54.844,156.37,163.343,210.393"/>
		
			<line fill="none" stroke="#FFFFFF" stroke-width="2" stroke-linecap="round" stroke-linejoin="round" stroke-miterlimit="10" x1="139.735" y1="113.579" x2="112.98" y2="225.554"/>
	</g>
</g>
</svg>
