<?xml version="1.0" encoding="utf-8"?>
<!-- Generator: Adobe Illustrator 18.0.0, SVG Export Plug-In . SVG Version: 6.00 Build 0)  -->
<!DOCTYPE svg PUBLIC "-//W3C//DTD SVG 1.1//EN" "http://www.w3.org/Graphics/SVG/1.1/DTD/svg11.dtd">
<svg version="1.1" id="Layer_1" xmlns="http://www.w3.org/2000/svg" xmlns:xlink="http://www.w3.org/1999/xlink" x="0px" y="0px"
	 viewBox="0 0 267.901 295.062" enable-background="new 0 0 267.901 295.062" xml:space="preserve">
<g>
	<defs>
		<path id="SVGID_1_" d="M82.665,18.196C20.421,46.666-6.96,120.205,21.51,182.45c23.735,51.894,78.796,79.545,132.522,70.813l0,0
			c6.053,0.21,32.932,35.69,44.861,32.467c0,0-23.835-22.264-16.191-40.775c1.023-0.435,2.044-0.884,3.062-1.349
			c62.245-28.47,89.625-102.009,61.155-164.253C218.449,17.107,144.91-10.273,82.665,18.196z"/>
	</defs>
	<clipPath id="SVGID_2_">
		<use xlink:href="#SVGID_1_"  overflow="visible"/>
	</clipPath>
	<rect x="-18.517" y="-29.14" clip-path="url(#SVGID_2_)" fill="#FFFFFF" width="447.688" height="401.064"/>
	<g clip-path="url(#SVGID_2_)">
		<path fill="none" stroke="#DC1756" stroke-width="3" stroke-miterlimit="10" d="M158.085,66.855c0,0,46.455,19.729,51.398,57.289
			s24.216,93.899,105.76,131.953s121.081,31.135,121.081,31.135"/>
		<path fill="#77C5BB" d="M154.179,48.142c-4.266-0.951-9.053,4.238-10.691,11.59L57.15,463.29c-0.912,4.093,0.274,7.841,2.65,8.371
			c2.375,0.529,5.041-2.36,5.953-6.453l93.185-402.032C160.576,55.823,158.445,49.093,154.179,48.142z M149.843,67.602
			c-1.802-0.401-2.701-3.244-2.01-6.348c0.692-3.105,2.713-5.296,4.515-4.894c1.802,0.402,2.701,3.244,2.01,6.348
			C153.666,65.812,151.644,68.003,149.843,67.602z"/>
		<path fill="none" stroke="#DC1756" stroke-width="3" stroke-miterlimit="10" d="M-9.451-146.187
			c0,0,54.844,156.37,163.343,210.394"/>
		
			<line fill="none" stroke="#FFFFFF" stroke-width="2" stroke-linecap="round" stroke-linejoin="round" stroke-miterlimit="10" x1="141.774" y1="113.838" x2="115.019" y2="225.813"/>
	</g>
</g>
</svg>
